G04 Layer_Physical_Order=4*
G04 Layer_Color=16711680*
%FSLAX44Y44*%
%MOMM*%
G71*
G01*
G75*
%ADD25C,2.0000*%
%ADD26C,0.5000*%
%ADD27C,0.3000*%
%ADD31C,1.7500*%
%ADD32C,1.5240*%
%ADD33C,0.7000*%
G36*
X523123Y394451D02*
X524513D01*
X534151Y384813D01*
Y383419D01*
Y195838D01*
Y193040D01*
X534151Y193040D01*
X534384Y191870D01*
X535047Y190877D01*
X537055Y188869D01*
X553359Y172565D01*
X555367Y170557D01*
X556359Y169894D01*
X557530Y169661D01*
X557530Y169661D01*
X560304D01*
X620957D01*
X622237Y167551D01*
X623413Y166017D01*
X624020Y164445D01*
Y158906D01*
X616180Y150379D01*
X456785D01*
X456248Y150882D01*
X451204Y158750D01*
X451204Y160379D01*
Y299720D01*
X450728Y300868D01*
X449580Y301344D01*
X382270D01*
X381122Y300868D01*
X380646Y299720D01*
Y223123D01*
X374399Y220332D01*
X370646Y219478D01*
X370565Y219532D01*
X369387Y220320D01*
X369387D01*
X368300Y220536D01*
Y214630D01*
Y208724D01*
X369386Y208940D01*
X369387D01*
X370206Y209488D01*
X370206D01*
X370646Y209782D01*
X374399Y208928D01*
X380646Y206137D01*
Y160379D01*
X380646Y158750D01*
X380557Y158611D01*
X367794Y157232D01*
X322530Y202496D01*
X317295Y211025D01*
X318400Y212679D01*
X318400Y212679D01*
X318788Y214630D01*
X318400Y216581D01*
X317295Y218235D01*
Y218235D01*
X315641Y219340D01*
X315641Y219340D01*
X313690Y219728D01*
X307416Y224550D01*
X305319Y227077D01*
Y253869D01*
Y255273D01*
X306303Y256257D01*
X425128Y375082D01*
X425957Y375912D01*
X426729Y375911D01*
X428680Y376299D01*
X428680Y376300D01*
X430334Y377405D01*
X430334Y377405D01*
X431439Y379058D01*
X431827Y381009D01*
X431827Y381009D01*
X431439Y382960D01*
X431439Y382960D01*
X430334Y384614D01*
X432054Y393991D01*
X432241Y394451D01*
X523123D01*
D02*
G37*
G36*
X670000Y0D02*
X520000D01*
X500000Y20000D01*
X298554D01*
X295705Y25341D01*
X294958Y30000D01*
X313366Y48408D01*
X314481Y48630D01*
X316135Y49735D01*
X317240Y51389D01*
X317628Y53340D01*
X317240Y55291D01*
X316135Y56945D01*
X314481Y58050D01*
X312530Y58438D01*
X312530Y58438D01*
X310579Y58050D01*
X310579D01*
X308925Y56945D01*
X308925Y56945D01*
X307820Y55291D01*
X307598Y54176D01*
X289251Y35828D01*
X288364Y35828D01*
X288364Y35828D01*
X287372Y35828D01*
X212397D01*
X212051Y36039D01*
X210087Y38234D01*
X205947Y45251D01*
X194310D01*
Y46521D01*
X193040D01*
Y57741D01*
X191363Y57520D01*
X188616Y56382D01*
X187195Y55292D01*
X185113Y54488D01*
X184209Y54421D01*
X174615Y55403D01*
Y55403D01*
D01*
X174615Y55407D01*
X173805Y65067D01*
X173802Y65164D01*
X175256Y66618D01*
X212009Y103371D01*
X214974Y106336D01*
X215858Y107659D01*
X216168Y109220D01*
X216168Y109220D01*
Y114346D01*
Y196077D01*
Y198434D01*
X218012Y199197D01*
X224730Y201980D01*
X226541Y202203D01*
X233692Y195052D01*
X236597Y192147D01*
X237589Y191484D01*
X238760Y191251D01*
X245420D01*
X300609D01*
X302111Y188895D01*
X301818Y186019D01*
X297494Y177660D01*
X297437Y177628D01*
X294193Y175894D01*
X291300Y173520D01*
X288926Y170627D01*
X287161Y167326D01*
X286075Y163745D01*
X285708Y160020D01*
X286075Y156295D01*
X287161Y152714D01*
X288926Y149413D01*
X291300Y146520D01*
X294193Y144146D01*
X297494Y142381D01*
X301075Y141295D01*
X304800Y140928D01*
X308525Y141295D01*
X312106Y142381D01*
X315407Y144146D01*
X318300Y146520D01*
X320674Y149413D01*
X321976Y151848D01*
X323135Y152964D01*
X331548Y155983D01*
X333535Y155905D01*
X334673Y155097D01*
X334215Y152195D01*
X333110Y150541D01*
X332722Y148590D01*
X332722Y148590D01*
X333110Y146639D01*
X334215Y144985D01*
X335869Y143880D01*
X335869Y143880D01*
X337820Y143492D01*
X337820Y143492D01*
X338592Y143492D01*
X339414Y142670D01*
X374461Y107623D01*
X379211Y102873D01*
X379211Y97871D01*
X379211Y75270D01*
X378665Y74725D01*
X377560Y73071D01*
X377172Y71120D01*
X377560Y69169D01*
X378665Y67515D01*
X380319Y66410D01*
X382270Y66022D01*
X384221Y66410D01*
X385875Y67515D01*
X386980Y69169D01*
X386980Y69169D01*
X387368Y71120D01*
X386980Y73071D01*
X385875Y74725D01*
X385329Y75270D01*
X385329Y98878D01*
X385329Y104140D01*
X385329Y104140D01*
X385096Y105310D01*
X384433Y106303D01*
X384433Y106305D01*
X384402Y107698D01*
X385875Y117045D01*
X386980Y118699D01*
X387368Y120650D01*
X387368Y120650D01*
X386980Y122601D01*
X385875Y124255D01*
X384221Y125360D01*
X384221Y125360D01*
X382270Y125748D01*
X382270Y125748D01*
X381498Y125748D01*
X372705Y134541D01*
X377127Y144261D01*
X620456D01*
X620957D01*
X622237Y142151D01*
X623413Y140617D01*
X624020Y139045D01*
Y130195D01*
X623413Y128623D01*
X622237Y127089D01*
X621204Y124596D01*
X620852Y121920D01*
X621204Y119244D01*
X622237Y116751D01*
X623880Y114610D01*
X626021Y112967D01*
X628514Y111934D01*
X631190Y111582D01*
X633866Y111934D01*
X636359Y112967D01*
X638500Y114610D01*
X640143Y116751D01*
X641176Y119244D01*
X641528Y121920D01*
X641176Y124596D01*
X640143Y127089D01*
X638967Y128623D01*
X638360Y130195D01*
Y139045D01*
X638967Y140617D01*
X640143Y142151D01*
X641176Y144644D01*
X641528Y147320D01*
X641176Y149996D01*
X640143Y152489D01*
X638967Y154023D01*
X638360Y155595D01*
Y164445D01*
X638967Y166017D01*
X640143Y167551D01*
X641176Y170044D01*
X641528Y172720D01*
X641176Y175396D01*
X640143Y177889D01*
X638967Y179423D01*
X638360Y180995D01*
Y189845D01*
X638967Y191417D01*
X640143Y192951D01*
X641176Y195444D01*
X641528Y198120D01*
X641176Y200796D01*
X640143Y203289D01*
X638967Y204823D01*
X638360Y206395D01*
Y215245D01*
X638967Y216817D01*
X640143Y218351D01*
X641176Y220844D01*
X641528Y223520D01*
X641176Y226196D01*
X640143Y228689D01*
X639622Y229369D01*
X639024Y231486D01*
X638866Y235773D01*
X639157Y239723D01*
X639961Y241805D01*
X641052Y243226D01*
X642189Y245973D01*
X642410Y247650D01*
X631190D01*
X619970D01*
X620191Y245973D01*
X621328Y243226D01*
X622419Y241805D01*
X623223Y239723D01*
X623514Y235773D01*
X623356Y231486D01*
X622758Y229369D01*
X622237Y228689D01*
X621204Y226196D01*
X620852Y223520D01*
X621204Y220844D01*
X622237Y218351D01*
X623413Y216817D01*
X624020Y215245D01*
Y209910D01*
X616180Y201179D01*
X570356D01*
X568957D01*
X567976Y202160D01*
X548870Y221266D01*
X547889Y222247D01*
Y223642D01*
Y330263D01*
X557889Y334406D01*
X562987Y329307D01*
X563979Y328644D01*
X565150Y328411D01*
X565150Y328411D01*
X567916D01*
X621267D01*
X622546Y326301D01*
X624189Y324160D01*
X626330Y322517D01*
X628824Y321484D01*
X631500Y321132D01*
X634175Y321484D01*
X636669Y322517D01*
X638810Y324160D01*
X640453Y326301D01*
X641486Y328794D01*
X641838Y331470D01*
X641486Y334146D01*
X640453Y336639D01*
X639276Y338173D01*
X638670Y339745D01*
Y348595D01*
X639276Y350167D01*
X640453Y351701D01*
X641486Y354194D01*
X641838Y356870D01*
X641486Y359546D01*
X640453Y362039D01*
X639276Y363573D01*
X638670Y365145D01*
Y373995D01*
X639276Y375567D01*
X640453Y377101D01*
X641486Y379594D01*
X641838Y382270D01*
X641486Y384946D01*
X640453Y387439D01*
X639276Y388973D01*
X638670Y390545D01*
Y399395D01*
X639276Y400967D01*
X640453Y402501D01*
X641486Y404994D01*
X641838Y407670D01*
X641486Y410346D01*
X640453Y412839D01*
X639276Y414373D01*
X638670Y415945D01*
Y424795D01*
X639276Y426367D01*
X640453Y427901D01*
X641486Y430394D01*
X641838Y433070D01*
X641486Y435746D01*
X640453Y438239D01*
X639932Y438919D01*
X639333Y441036D01*
X639175Y445323D01*
X639467Y449273D01*
X640271Y451355D01*
X641361Y452776D01*
X642499Y455523D01*
X642720Y457200D01*
X631500D01*
X620280D01*
X620500Y455523D01*
X621638Y452776D01*
X622728Y451355D01*
X623532Y449273D01*
X623824Y445323D01*
X623666Y441036D01*
X623068Y438919D01*
X622546Y438239D01*
X621514Y435746D01*
X621161Y433070D01*
X621514Y430394D01*
X622546Y427901D01*
X623723Y426367D01*
X624330Y424795D01*
Y419460D01*
X616490Y410729D01*
X593087D01*
X579639Y424177D01*
Y454323D01*
Y466090D01*
X579639Y466090D01*
X579406Y467261D01*
X578743Y468253D01*
X576735Y470261D01*
X559161Y487835D01*
X557153Y489843D01*
X556161Y490506D01*
X554990Y490739D01*
X554990Y490739D01*
X552150D01*
X461310D01*
X458470D01*
X457299Y490506D01*
X456307Y489843D01*
X456307Y489843D01*
X449957Y483493D01*
X449294Y482501D01*
X449061Y481330D01*
X449061Y481330D01*
Y476410D01*
X448515Y476045D01*
X448515Y476045D01*
X447410Y474391D01*
X447022Y472440D01*
X447410Y470489D01*
Y470489D01*
X448515Y468835D01*
Y468835D01*
X449371Y468075D01*
Y451190D01*
X448825Y450645D01*
X447720Y448991D01*
X447332Y447040D01*
X447563Y445878D01*
X447437Y444471D01*
X444491Y438032D01*
X442763Y435878D01*
X408026D01*
X407081Y436510D01*
X407081Y436510D01*
X405130Y436898D01*
X403179Y436510D01*
X401525Y435405D01*
X401525D01*
X400420Y433751D01*
X400420Y433751D01*
X400032Y431800D01*
X395210Y425526D01*
X392683Y423429D01*
X285537D01*
X284480D01*
X283309Y423196D01*
X282317Y422533D01*
X277504Y417720D01*
X276860Y417848D01*
X276860Y417848D01*
X274909Y417460D01*
X273255Y416355D01*
X273255Y416355D01*
Y416355D01*
X272150Y414701D01*
X272150Y414701D01*
X271762Y412750D01*
X262783Y408189D01*
X259080D01*
X257910Y407956D01*
X256917Y407293D01*
X252190Y402566D01*
X251460Y402608D01*
X249509Y402220D01*
X247855Y401115D01*
X246750Y399461D01*
X246362Y397510D01*
X246750Y395559D01*
X247855Y393905D01*
X249509Y392800D01*
X249509Y392800D01*
X251460Y392412D01*
X251460Y392412D01*
X253411Y392800D01*
X253411D01*
X255830Y393905D01*
X259790D01*
X262209Y392800D01*
X262209Y392800D01*
X264160Y392412D01*
X266111Y392800D01*
X267765Y393905D01*
X268310Y394451D01*
X269331D01*
X407238D01*
X407426Y393991D01*
X409145Y384614D01*
X408040Y382960D01*
X407652Y381009D01*
X407652Y380238D01*
X406886Y379471D01*
X292911Y265496D01*
X287397Y259982D01*
X286734Y258990D01*
X286501Y257819D01*
X286501Y257819D01*
Y255085D01*
Y219984D01*
Y218780D01*
X285955Y218235D01*
X284850Y216581D01*
X284462Y214630D01*
X284462Y214630D01*
X284850Y212679D01*
X285955Y211025D01*
X285955Y211025D01*
X287609Y209920D01*
X287609Y209920D01*
X289560Y209532D01*
X289560Y209532D01*
X291966Y209920D01*
X292426Y209920D01*
X299854D01*
X301599Y209639D01*
X303172Y207369D01*
X301215Y201977D01*
X295543Y197369D01*
X245646D01*
X240027Y197369D01*
X234245Y203151D01*
X228550Y210816D01*
X228668Y211322D01*
X228724Y211517D01*
X229500Y212679D01*
X229500Y212679D01*
X229888Y214630D01*
X229500Y216581D01*
X228395Y218235D01*
X228395Y218235D01*
X226741Y219340D01*
Y219340D01*
X225819Y219523D01*
X218012Y224818D01*
X216168Y226910D01*
Y234899D01*
Y451856D01*
X216168Y455511D01*
X217214Y456556D01*
X239742Y479084D01*
X241719Y481062D01*
X245203Y481062D01*
X284535D01*
X286554D01*
X289784Y474908D01*
X290513Y471062D01*
X288926Y469127D01*
X287161Y465826D01*
X286075Y462245D01*
X285708Y458520D01*
X286075Y454795D01*
X287161Y451214D01*
X288926Y447913D01*
X291300Y445020D01*
X294193Y442646D01*
X297494Y440881D01*
X301075Y439795D01*
X304800Y439428D01*
X308525Y439795D01*
X312106Y440881D01*
X315407Y442646D01*
X318300Y445020D01*
X320674Y447913D01*
X322439Y451214D01*
X323525Y454795D01*
X323892Y458520D01*
X323525Y462245D01*
X323190Y463351D01*
X330170Y468809D01*
X330582Y469131D01*
X331371Y469393D01*
X332449Y468672D01*
X334010Y468362D01*
X334010Y468362D01*
X339078D01*
X407557D01*
X410514Y468362D01*
X411459Y467730D01*
X413410Y467342D01*
X413410Y467342D01*
X415361Y467730D01*
X417015Y468835D01*
X418120Y470489D01*
X418508Y472440D01*
X418120Y474391D01*
X417015Y476045D01*
X415361Y477150D01*
X415361Y477150D01*
X413410Y477538D01*
X413410Y477538D01*
X411459Y477150D01*
X410514Y476518D01*
X407567Y476518D01*
X339312D01*
X335699Y476518D01*
X326662Y485556D01*
X324194Y488024D01*
X322871Y488908D01*
X321310Y489218D01*
X321310Y489218D01*
X318873D01*
X301197D01*
X291197Y489218D01*
X284957D01*
X244377D01*
X240030D01*
X240030Y489218D01*
X238469Y488908D01*
X237146Y488024D01*
X234677Y485555D01*
X211781Y462659D01*
X209206Y460084D01*
X208322Y458761D01*
X208012Y457200D01*
X208012Y452111D01*
Y231174D01*
Y223306D01*
X208012Y212773D01*
X208012Y203343D01*
Y196747D01*
Y114425D01*
X208012Y110909D01*
X205765Y108663D01*
X168651Y71548D01*
X166026Y68924D01*
X165142Y67601D01*
X164832Y66040D01*
X164832Y55926D01*
X163741Y55474D01*
X163741D01*
X161600Y53831D01*
X159957Y51690D01*
X158924Y49196D01*
X158572Y46521D01*
X158924Y43845D01*
X159957Y41351D01*
X161600Y39210D01*
X163741Y37567D01*
X166234Y36534D01*
X168910Y36182D01*
X171398Y36510D01*
X178188Y29678D01*
X177493Y25341D01*
X174643Y20000D01*
X170000D01*
X150000Y0D01*
X0D01*
Y440000D01*
X145000D01*
X146470Y440072D01*
X149354Y440646D01*
X152071Y441771D01*
X154516Y443405D01*
X156595Y445484D01*
X158229Y447929D01*
X159354Y450646D01*
X159928Y453530D01*
X160000Y455000D01*
X160000D01*
Y507274D01*
X160003Y507277D01*
X160004Y507277D01*
X160777Y508434D01*
X161049Y509800D01*
X160777Y511166D01*
X160777Y511166D01*
X160003Y512323D01*
Y514277D01*
X160777Y515434D01*
X161049Y516800D01*
X160777Y518166D01*
X160003Y519323D01*
Y521277D01*
X160777Y522434D01*
X161049Y523800D01*
X160777Y525166D01*
X160003Y526323D01*
Y528277D01*
X160777Y529434D01*
X161049Y530800D01*
X160777Y532166D01*
X160003Y533323D01*
Y535277D01*
X160777Y536434D01*
X161049Y537800D01*
X160777Y539166D01*
X160003Y540323D01*
Y542277D01*
X160777Y543434D01*
X161049Y544800D01*
X160777Y546166D01*
X160003Y547323D01*
Y549277D01*
X160777Y550434D01*
X161049Y551800D01*
X160777Y553166D01*
X160003Y554323D01*
Y556277D01*
X160777Y557434D01*
X160777Y557435D01*
X161049Y558800D01*
X160777Y560166D01*
X160004Y561323D01*
X160003Y561323D01*
X160000Y561326D01*
Y600000D01*
X500000D01*
X520000Y620000D01*
X670000D01*
Y0D01*
D02*
G37*
%LPC*%
G36*
X365760Y213360D02*
X361124D01*
X361340Y212273D01*
X361888Y211454D01*
X362675Y210275D01*
X363495Y209728D01*
Y209728D01*
X364673Y208941D01*
X364673Y208940D01*
X365760Y208724D01*
Y213360D01*
D02*
G37*
G36*
X339090D02*
X334454D01*
X334670Y212273D01*
X335218Y211454D01*
X335218Y211454D01*
X336005Y210275D01*
X336825Y209728D01*
X336825Y209728D01*
X338003Y208940D01*
X339090Y208724D01*
Y213360D01*
D02*
G37*
G36*
X346266D02*
X341630D01*
Y208724D01*
X342717Y208940D01*
X342964Y209105D01*
X344715Y210275D01*
X346050Y212273D01*
X346266Y213360D01*
D02*
G37*
G36*
X339090Y220536D02*
X338003Y220320D01*
X337184Y219772D01*
X336005Y218985D01*
X335458Y218165D01*
X334670Y216987D01*
X334454Y215900D01*
X339090D01*
Y220536D01*
D02*
G37*
G36*
X341630D02*
Y215900D01*
X346266D01*
X346050Y216987D01*
X345502Y217806D01*
X345502Y217806D01*
X344715Y218985D01*
X343895Y219532D01*
X343895D01*
X342717Y220320D01*
X341750Y220512D01*
X341630Y220536D01*
D02*
G37*
G36*
X365760Y220536D02*
X364673Y220320D01*
X364673Y220319D01*
X363854Y219772D01*
Y219772D01*
X362675Y218985D01*
X362128Y218165D01*
X361340Y216987D01*
X361124Y215900D01*
X365760D01*
Y220536D01*
D02*
G37*
G36*
X625000Y49625D02*
X621215Y49127D01*
X617687Y47666D01*
X614659Y45342D01*
X612334Y42313D01*
X610873Y38785D01*
X610375Y35000D01*
X610873Y31215D01*
X612334Y27687D01*
X614659Y24659D01*
X617687Y22334D01*
X621215Y20873D01*
X625000Y20375D01*
X628785Y20873D01*
X632313Y22334D01*
X635341Y24659D01*
X637666Y27687D01*
X639127Y31215D01*
X639625Y35000D01*
X639127Y38785D01*
X637666Y42313D01*
X635341Y45342D01*
X632313Y47666D01*
X628785Y49127D01*
X625000Y49625D01*
D02*
G37*
G36*
X35000D02*
X31215Y49127D01*
X27687Y47666D01*
X24659Y45342D01*
X22334Y42313D01*
X20873Y38785D01*
X20375Y35000D01*
X20873Y31215D01*
X22334Y27687D01*
X24659Y24659D01*
X27687Y22334D01*
X31215Y20873D01*
X35000Y20375D01*
X38785Y20873D01*
X42313Y22334D01*
X45342Y24659D01*
X47666Y27687D01*
X49127Y31215D01*
X49625Y35000D01*
X49127Y38785D01*
X47666Y42313D01*
X45342Y45342D01*
X42313Y47666D01*
X38785Y49127D01*
X35000Y49625D01*
D02*
G37*
G36*
X195580Y57741D02*
Y47790D01*
X205530D01*
X205309Y49468D01*
X204172Y52214D01*
X202362Y54573D01*
X200004Y56382D01*
X197257Y57520D01*
X195580Y57741D01*
D02*
G37*
G36*
X171450Y309898D02*
X169499Y309510D01*
X167845Y308405D01*
X167845Y308405D01*
X166740Y306751D01*
X166740Y306751D01*
X166352Y304800D01*
X166352Y304800D01*
X166740Y302849D01*
X167372Y301904D01*
X167372Y298953D01*
Y183647D01*
X167372Y180696D01*
X166740Y179751D01*
X166352Y177800D01*
X166352Y177800D01*
X166740Y175849D01*
X167845Y174195D01*
X169499Y173090D01*
X171450Y172702D01*
X173401Y173090D01*
X175055Y174195D01*
X175055Y174195D01*
X176160Y175849D01*
X176160Y175849D01*
X176548Y177800D01*
X176548Y177800D01*
X176160Y179751D01*
X175528Y180696D01*
X175528Y183647D01*
Y298953D01*
X175528Y301904D01*
X176160Y302849D01*
X176548Y304800D01*
X176548Y304800D01*
X176160Y306751D01*
X175055Y308405D01*
X173401Y309510D01*
X171450Y309898D01*
D02*
G37*
G36*
X40600Y171619D02*
X37598Y171224D01*
X34800Y170065D01*
X32398Y168222D01*
X30555Y165820D01*
X29396Y163022D01*
X29001Y160020D01*
X29396Y157018D01*
X30555Y154220D01*
X32398Y151818D01*
X34800Y149975D01*
X37598Y148816D01*
X40600Y148421D01*
X43602Y148816D01*
X46400Y149975D01*
X48802Y151818D01*
X50645Y154220D01*
X51804Y157018D01*
X52199Y160020D01*
X51804Y163022D01*
X50645Y165820D01*
X48802Y168222D01*
X46400Y170065D01*
X43602Y171224D01*
X40600Y171619D01*
D02*
G37*
G36*
X39330Y299501D02*
X37326Y299237D01*
X34276Y297974D01*
X31656Y295964D01*
X29646Y293344D01*
X28383Y290294D01*
X28119Y288290D01*
X39330D01*
Y299501D01*
D02*
G37*
G36*
X632460Y285540D02*
Y275590D01*
X642410D01*
X642189Y277267D01*
X641052Y280014D01*
X639242Y282372D01*
X636884Y284182D01*
X634137Y285319D01*
X632460Y285540D01*
D02*
G37*
G36*
X41870Y299501D02*
Y288290D01*
X53081D01*
X52817Y290294D01*
X51554Y293344D01*
X49544Y295964D01*
X46924Y297974D01*
X43874Y299237D01*
X41870Y299501D01*
D02*
G37*
G36*
X635000Y599625D02*
X631215Y599127D01*
X627687Y597666D01*
X624659Y595341D01*
X622334Y592313D01*
X620873Y588785D01*
X620375Y585000D01*
X620873Y581215D01*
X622334Y577687D01*
X624659Y574659D01*
X627687Y572334D01*
X631215Y570873D01*
X635000Y570375D01*
X638785Y570873D01*
X642313Y572334D01*
X645341Y574659D01*
X647666Y577687D01*
X649127Y581215D01*
X649625Y585000D01*
X649127Y588785D01*
X647666Y592313D01*
X645341Y595341D01*
X642313Y597666D01*
X638785Y599127D01*
X635000Y599625D01*
D02*
G37*
G36*
X631500Y494208D02*
X628824Y493856D01*
X626330Y492823D01*
X624189Y491180D01*
X622546Y489039D01*
X621514Y486546D01*
X621161Y483870D01*
X621514Y481194D01*
X622546Y478701D01*
X623068Y478021D01*
X623666Y475904D01*
X623824Y471617D01*
X623532Y467667D01*
X622728Y465585D01*
X621638Y464164D01*
X620500Y461417D01*
X620280Y459740D01*
X631500D01*
X642720D01*
X642499Y461417D01*
X641361Y464164D01*
X640271Y465585D01*
X639467Y467667D01*
X639175Y471617D01*
X639333Y475904D01*
X639932Y478021D01*
X640453Y478701D01*
X641486Y481194D01*
X641838Y483870D01*
X641486Y486546D01*
X640453Y489039D01*
X638810Y491180D01*
X636669Y492823D01*
X634175Y493856D01*
X631500Y494208D01*
D02*
G37*
G36*
X642410Y273050D02*
X631190D01*
X619970D01*
X620191Y271373D01*
X621328Y268626D01*
X621763Y268059D01*
X623138Y264643D01*
Y258597D01*
X621763Y255181D01*
X621328Y254614D01*
X620191Y251867D01*
X619970Y250190D01*
X631190D01*
X642410D01*
X642189Y251867D01*
X641052Y254614D01*
X640617Y255181D01*
X639242Y258597D01*
Y264643D01*
X640617Y268059D01*
X641052Y268626D01*
X642189Y271373D01*
X642410Y273050D01*
D02*
G37*
G36*
X39330Y285750D02*
X28119D01*
X28383Y283746D01*
X29646Y280696D01*
X31656Y278076D01*
X34276Y276066D01*
X37326Y274803D01*
X39330Y274539D01*
Y285750D01*
D02*
G37*
G36*
X629920Y285540D02*
X628243Y285319D01*
X625496Y284182D01*
X623138Y282372D01*
X621328Y280014D01*
X620191Y277267D01*
X619970Y275590D01*
X629920D01*
Y285540D01*
D02*
G37*
G36*
X53081Y285750D02*
X41870D01*
Y274539D01*
X43874Y274803D01*
X46924Y276066D01*
X49544Y278076D01*
X51554Y280696D01*
X52817Y283746D01*
X53081Y285750D01*
D02*
G37*
%LPD*%
D25*
X40600Y287020D02*
D03*
Y160020D02*
D03*
D26*
X342900Y214630D02*
X367030D01*
X341630Y215900D02*
X342900Y214630D01*
X340360D02*
X341630Y215900D01*
X212090Y109220D02*
Y457200D01*
X168910Y66040D02*
X212090Y109220D01*
X168910Y45098D02*
Y66040D01*
Y45098D02*
X182258Y31750D01*
X481330Y431800D02*
X492760Y443230D01*
X405130Y431800D02*
X481330D01*
X171450Y177800D02*
Y304800D01*
X212090Y457200D02*
X240030Y485140D01*
X492760Y443230D02*
Y472130D01*
X334010Y472440D02*
X413410D01*
X321310Y485140D02*
X334010Y472440D01*
X240030Y485140D02*
X321310D01*
X182258Y31750D02*
X290940D01*
X312530Y53340D01*
D27*
X337820Y148590D02*
X382270Y104140D01*
Y71120D02*
Y104140D01*
X224790Y208280D02*
Y214630D01*
Y208280D02*
X238760Y194310D01*
X308610D01*
X382270Y120650D01*
X313690Y207010D02*
Y214630D01*
Y207010D02*
X373380Y147320D01*
X631190D01*
X289560Y214630D02*
Y257819D01*
X412750Y381009D01*
X302260Y214630D02*
Y256540D01*
X426729Y381009D01*
X264160Y397510D02*
X525780D01*
X537210Y386080D01*
X251460Y397510D02*
X259080Y405130D01*
X276860Y412750D02*
X284480Y420370D01*
X259080Y405130D02*
X529590D01*
X544830Y389890D01*
X290830Y412750D02*
X533400D01*
X284480Y420370D02*
X537210D01*
X533400Y412750D02*
X552450Y393700D01*
X537210Y420370D02*
X560070Y397510D01*
Y369570D02*
Y397510D01*
Y369570D02*
X572770Y356870D01*
X631500D01*
X552450Y344170D02*
Y393700D01*
Y344170D02*
X565150Y331470D01*
X631500D01*
X537210Y193040D02*
Y386080D01*
Y193040D02*
X557530Y172720D01*
X631190D01*
X544830Y220980D02*
Y389890D01*
Y220980D02*
X567690Y198120D01*
X631190D01*
X568960Y396240D02*
X582930Y382270D01*
X631500D01*
X576580Y422910D02*
X591820Y407670D01*
X631500D01*
X452430Y447040D02*
Y472130D01*
X452120Y472440D02*
X452430Y472130D01*
X473710Y447040D02*
Y472440D01*
X568960Y396240D02*
Y463550D01*
X452120Y481330D02*
X458470Y487680D01*
X452120Y472440D02*
Y481330D01*
X473710Y472440D02*
X481330Y480060D01*
X552450D01*
X568960Y463550D01*
X458470Y487680D02*
X554990D01*
X576580Y466090D01*
Y422910D02*
Y466090D01*
D31*
X27940Y496570D02*
D03*
X53340D02*
D03*
X104140D02*
D03*
X78740D02*
D03*
X631500Y331470D02*
D03*
Y356870D02*
D03*
Y458470D02*
D03*
Y483870D02*
D03*
Y433070D02*
D03*
Y407670D02*
D03*
Y382270D02*
D03*
X631190Y121920D02*
D03*
Y147320D02*
D03*
Y248920D02*
D03*
Y274320D02*
D03*
Y223520D02*
D03*
Y198120D02*
D03*
Y172720D02*
D03*
X168910Y46521D02*
D03*
X194310D02*
D03*
D32*
X304800Y458520D02*
D03*
Y160020D02*
D03*
D33*
X656603Y547670D02*
D03*
X636603Y507670D02*
D03*
Y107670D02*
D03*
X656603Y67670D02*
D03*
X596603Y587670D02*
D03*
X616603Y547670D02*
D03*
X596603Y507670D02*
D03*
X616603Y467670D02*
D03*
Y307670D02*
D03*
X596603Y267670D02*
D03*
Y107670D02*
D03*
X616603Y67670D02*
D03*
X596603Y27671D02*
D03*
X556603Y587670D02*
D03*
X576603Y547670D02*
D03*
X556603Y507670D02*
D03*
X576603Y307670D02*
D03*
X556603Y267670D02*
D03*
Y107670D02*
D03*
X576603Y67670D02*
D03*
X556603Y27671D02*
D03*
X516603Y587670D02*
D03*
Y347671D02*
D03*
Y267670D02*
D03*
X536603Y67670D02*
D03*
X516603Y27671D02*
D03*
X476603Y587670D02*
D03*
X496603Y547670D02*
D03*
Y387670D02*
D03*
X476603Y347671D02*
D03*
X496603Y307670D02*
D03*
Y67670D02*
D03*
X476603Y27671D02*
D03*
X436603Y587670D02*
D03*
X456603Y547670D02*
D03*
Y387670D02*
D03*
X436603Y347671D02*
D03*
X456603Y227670D02*
D03*
X436603Y27671D02*
D03*
X396603Y587670D02*
D03*
X416603Y547670D02*
D03*
X396603Y507670D02*
D03*
X416603Y67670D02*
D03*
X356603Y587670D02*
D03*
Y507670D02*
D03*
X376603Y387670D02*
D03*
X356603Y347671D02*
D03*
X376603Y227670D02*
D03*
X356603Y107670D02*
D03*
X316603Y587670D02*
D03*
X336603Y547670D02*
D03*
X316603Y507670D02*
D03*
Y347671D02*
D03*
X336603Y67670D02*
D03*
X316603Y27671D02*
D03*
X276603Y587670D02*
D03*
X296603Y547670D02*
D03*
X276603Y507670D02*
D03*
Y347671D02*
D03*
Y187670D02*
D03*
X296603Y67670D02*
D03*
X236603Y587670D02*
D03*
X256603Y547670D02*
D03*
X236603Y507670D02*
D03*
X256603Y467670D02*
D03*
X236603Y427670D02*
D03*
X256603Y147670D02*
D03*
X236603Y107670D02*
D03*
X196603Y587670D02*
D03*
X216603Y547670D02*
D03*
X196603Y507670D02*
D03*
Y347671D02*
D03*
Y267670D02*
D03*
Y187670D02*
D03*
Y107670D02*
D03*
X216603Y67670D02*
D03*
X176603Y547670D02*
D03*
Y467670D02*
D03*
X156603Y427670D02*
D03*
Y347671D02*
D03*
Y267670D02*
D03*
Y187670D02*
D03*
Y107670D02*
D03*
Y27671D02*
D03*
X116603Y427670D02*
D03*
X136603Y387670D02*
D03*
X116603Y347671D02*
D03*
X136603Y307670D02*
D03*
X116603Y267670D02*
D03*
X136603Y227670D02*
D03*
X116603Y187670D02*
D03*
X136603Y147670D02*
D03*
X116603Y107670D02*
D03*
X136603Y67670D02*
D03*
X116603Y27671D02*
D03*
X76603Y427670D02*
D03*
X96603Y387670D02*
D03*
X76603Y347671D02*
D03*
X96603Y307670D02*
D03*
X76603Y267670D02*
D03*
X96603Y227670D02*
D03*
X76603Y187670D02*
D03*
X96603Y147670D02*
D03*
X76603Y27671D02*
D03*
X36603Y427670D02*
D03*
X56603Y387670D02*
D03*
X36603Y347671D02*
D03*
X56603Y307670D02*
D03*
X36603Y267670D02*
D03*
X56603Y227670D02*
D03*
X36603Y187670D02*
D03*
X56603Y147670D02*
D03*
X36603Y107670D02*
D03*
X56603Y67670D02*
D03*
X367030Y214630D02*
D03*
X340360D02*
D03*
X337820Y148590D02*
D03*
X382270Y71120D02*
D03*
X224790Y214630D02*
D03*
X382270Y120650D02*
D03*
X313690Y214630D02*
D03*
X289560D02*
D03*
X412750Y381009D02*
D03*
X452430Y447040D02*
D03*
X302260Y214630D02*
D03*
X426729Y381009D02*
D03*
X473710Y447040D02*
D03*
X405130Y431800D02*
D03*
X171450Y177800D02*
D03*
Y304800D02*
D03*
X251460Y397510D02*
D03*
X264160D02*
D03*
X290830Y412750D02*
D03*
X276860D02*
D03*
X452120Y472440D02*
D03*
X473710D02*
D03*
X492760Y472130D02*
D03*
X413410Y472440D02*
D03*
X312530Y53340D02*
D03*
M02*
