G04 Layer_Color=65535*
%FSLAX44Y44*%
%MOMM*%
G71*
G01*
G75*
%ADD34C,0.1270*%
%ADD35C,0.1500*%
%ADD36C,0.1700*%
%ADD37C,0.2000*%
%ADD38C,0.2540*%
%ADD39C,0.1000*%
D34*
X86360Y541020D02*
G03*
X86360Y541020I-1270J0D01*
G01*
X113030Y505460D02*
X115570Y502920D01*
X16510D02*
X19050Y505460D01*
X115570Y490220D02*
Y502920D01*
X113030Y487680D02*
X115570Y490220D01*
X16510D02*
X19050Y487680D01*
X16510Y490220D02*
Y502920D01*
X49530Y541020D02*
X81280D01*
X49530Y571500D02*
X81280D01*
X417424Y211150D02*
X432424D01*
Y220650D01*
X417424D02*
X432424D01*
X415674Y212900D02*
Y218900D01*
X417424Y220650D01*
X415674Y212900D02*
X417424Y211150D01*
D35*
X132986Y114902D02*
X137050D01*
X132986Y140556D02*
X137050D01*
Y114902D02*
Y140556D01*
X132986Y114902D02*
Y140556D01*
X269748Y28458D02*
X273812D01*
X269748Y54112D02*
X273812D01*
Y28458D02*
Y54112D01*
X269748Y28458D02*
Y54112D01*
X475378Y80010D02*
X479442D01*
X475378Y105664D02*
X479442D01*
Y80010D02*
Y105664D01*
X475378Y80010D02*
Y105664D01*
X321818Y66040D02*
X325882D01*
X321818Y91694D02*
X325882D01*
Y66040D02*
Y91694D01*
X321818Y66040D02*
Y91694D01*
X536448Y109220D02*
X540512D01*
X536448Y134874D02*
X540512D01*
Y109220D02*
Y134874D01*
X536448Y109220D02*
Y134874D01*
D36*
X63500Y125730D02*
X78740D01*
X165100Y127000D02*
X180340D01*
X66040Y575310D02*
Y585470D01*
X412750Y43180D02*
X422910D01*
X224790Y406400D02*
Y421640D01*
D37*
X36830Y514350D02*
Y524510D01*
X76200Y514350D02*
Y524510D01*
X255270Y78740D02*
X265430D01*
X425450Y96012D02*
Y106172D01*
X279400Y78740D02*
X289560D01*
X358140Y43180D02*
X370840D01*
X358140Y78740D02*
X370840D01*
X497840Y125840D02*
Y136000D01*
X586740Y140970D02*
Y153670D01*
X525480Y499110D02*
X544530D01*
Y530860D01*
X381630Y499110D02*
Y530860D01*
Y499110D02*
X400680D01*
X405130Y581660D02*
X519430D01*
D38*
X188360Y369570D02*
X191770D01*
X188360Y242570D02*
X191770D01*
X438150Y369570D02*
X442360D01*
X438150Y242570D02*
X442360D01*
X188360D02*
Y369570D01*
X442360Y242570D02*
Y369570D01*
X576334Y244345D02*
X561099D01*
X566177Y249424D01*
X561099Y254502D01*
X576334D01*
Y259580D02*
X573794D01*
Y262120D01*
X576334D01*
Y259580D01*
Y272276D02*
X561099D01*
X566177Y277355D01*
X561099Y282433D01*
X576334D01*
Y295129D02*
Y290050D01*
X573794Y287511D01*
X568716D01*
X566177Y290050D01*
Y295129D01*
X568716Y297668D01*
X571255D01*
Y287511D01*
X563638Y305285D02*
X566177D01*
Y302746D01*
Y307825D01*
Y305285D01*
X573794D01*
X576334Y307825D01*
Y323060D02*
Y317981D01*
X573794Y315442D01*
X568716D01*
X566177Y317981D01*
Y323060D01*
X568716Y325599D01*
X571255D01*
Y315442D01*
X576334Y333217D02*
Y338295D01*
X573794Y340834D01*
X568716D01*
X566177Y338295D01*
Y333217D01*
X568716Y330677D01*
X573794D01*
X576334Y333217D01*
Y361147D02*
Y366226D01*
Y363687D01*
X561099D01*
X563638Y361147D01*
X576334Y373843D02*
X573794D01*
Y376382D01*
X576334D01*
Y373843D01*
X563638Y386539D02*
X561099Y389078D01*
Y394157D01*
X563638Y396696D01*
X573794D01*
X576334Y394157D01*
Y389078D01*
X573794Y386539D01*
X563638D01*
X600712Y244345D02*
X585477D01*
X600712Y254502D01*
X585477D01*
X590555Y262120D02*
Y267198D01*
X593094Y269737D01*
X600712D01*
Y262120D01*
X598172Y259580D01*
X595633Y262120D01*
Y269737D01*
X600712Y274815D02*
Y279894D01*
Y277355D01*
X590555D01*
Y274815D01*
X600712Y290050D02*
Y295129D01*
X598172Y297668D01*
X593094D01*
X590555Y295129D01*
Y290050D01*
X593094Y287511D01*
X598172D01*
X600712Y290050D01*
X585477Y317981D02*
Y328138D01*
Y323060D01*
X600712D01*
Y340834D02*
Y335756D01*
X598172Y333217D01*
X593094D01*
X590555Y335756D01*
Y340834D01*
X593094Y343373D01*
X595633D01*
Y333217D01*
X590555Y358608D02*
Y350991D01*
X593094Y348452D01*
X598172D01*
X600712Y350991D01*
Y358608D01*
X585477Y363687D02*
X600712D01*
X593094D01*
X590555Y366226D01*
Y371304D01*
X593094Y373843D01*
X600712D01*
Y378922D02*
X590555D01*
Y386539D01*
X593094Y389078D01*
X600712D01*
Y396696D02*
Y401774D01*
X598172Y404314D01*
X593094D01*
X590555Y401774D01*
Y396696D01*
X593094Y394157D01*
X598172D01*
X600712Y396696D01*
Y409392D02*
Y414470D01*
Y411931D01*
X585477D01*
Y409392D01*
X600712Y424627D02*
Y429705D01*
X598172Y432244D01*
X593094D01*
X590555Y429705D01*
Y424627D01*
X593094Y422088D01*
X598172D01*
X600712Y424627D01*
X605790Y442401D02*
Y444940D01*
X603251Y447480D01*
X590555D01*
Y439862D01*
X593094Y437323D01*
X598172D01*
X600712Y439862D01*
Y447480D01*
Y452558D02*
Y457636D01*
Y455097D01*
X590555D01*
Y452558D01*
X600712Y472871D02*
Y467793D01*
X598172Y465254D01*
X593094D01*
X590555Y467793D01*
Y472871D01*
X593094Y475410D01*
X595633D01*
Y465254D01*
X600712Y480489D02*
Y488106D01*
X598172Y490646D01*
X595633Y488106D01*
Y483028D01*
X593094Y480489D01*
X590555Y483028D01*
Y490646D01*
X104137Y525775D02*
X99058D01*
X101597D01*
Y513079D01*
X99058Y510540D01*
X96519D01*
X93980Y513079D01*
X119372Y525775D02*
X114293Y523236D01*
X109215Y518158D01*
Y513079D01*
X111754Y510540D01*
X116833D01*
X119372Y513079D01*
Y515618D01*
X116833Y518158D01*
X109215D01*
X16510Y532130D02*
Y547365D01*
X24128D01*
X26667Y544826D01*
Y539748D01*
X24128Y537208D01*
X16510D01*
X21588D02*
X26667Y532130D01*
X31745Y534669D02*
X34284Y532130D01*
X39363D01*
X41902Y534669D01*
Y544826D01*
X39363Y547365D01*
X34284D01*
X31745Y544826D01*
Y542287D01*
X34284Y539748D01*
X41902D01*
X95250Y532130D02*
Y547365D01*
X102867D01*
X105407Y544826D01*
Y539748D01*
X102867Y537208D01*
X95250D01*
X100328D02*
X105407Y532130D01*
X110485Y544826D02*
X113024Y547365D01*
X118103D01*
X120642Y544826D01*
Y542287D01*
X118103Y539748D01*
X120642Y537208D01*
Y534669D01*
X118103Y532130D01*
X113024D01*
X110485Y534669D01*
Y537208D01*
X113024Y539748D01*
X110485Y542287D01*
Y544826D01*
X113024Y539748D02*
X118103D01*
X95250Y570225D02*
Y557529D01*
X97789Y554990D01*
X102867D01*
X105407Y557529D01*
Y570225D01*
X120642Y554990D02*
X110485D01*
X120642Y565147D01*
Y567686D01*
X118103Y570225D01*
X113024D01*
X110485Y567686D01*
X63497Y605786D02*
X60957Y608325D01*
X55879D01*
X53340Y605786D01*
Y595629D01*
X55879Y593090D01*
X60957D01*
X63497Y595629D01*
X68575Y608325D02*
X78732D01*
Y605786D01*
X68575Y595629D01*
Y593090D01*
X66037Y99310D02*
X63498Y101849D01*
X58419D01*
X55880Y99310D01*
Y89153D01*
X58419Y86614D01*
X63498D01*
X66037Y89153D01*
X71115Y86614D02*
X76193D01*
X73654D01*
Y101849D01*
X71115Y99310D01*
X169567Y98436D02*
X167028Y100975D01*
X161950D01*
X159411Y98436D01*
Y88279D01*
X161950Y85740D01*
X167028D01*
X169567Y88279D01*
X184802Y85740D02*
X174646D01*
X184802Y95897D01*
Y98436D01*
X182263Y100975D01*
X177185D01*
X174646Y98436D01*
X223136Y442845D02*
X220597Y445384D01*
X215518D01*
X212979Y442845D01*
Y432688D01*
X215518Y430149D01*
X220597D01*
X223136Y432688D01*
X235832Y430149D02*
Y445384D01*
X228214Y437766D01*
X238371D01*
X414017Y72747D02*
X411478Y75286D01*
X406399D01*
X403860Y72747D01*
Y62590D01*
X406399Y60051D01*
X411478D01*
X414017Y62590D01*
X429252Y75286D02*
X424173Y72747D01*
X419095Y67669D01*
Y62590D01*
X421634Y60051D01*
X426713D01*
X429252Y62590D01*
Y65129D01*
X426713Y67669D01*
X419095D01*
X375920Y222245D02*
Y207010D01*
X383537D01*
X386077Y209549D01*
Y219706D01*
X383537Y222245D01*
X375920D01*
X391155Y207010D02*
X396233D01*
X393694D01*
Y222245D01*
X391155Y219706D01*
X374647Y185415D02*
X369568D01*
X372108D01*
Y172719D01*
X369568Y170180D01*
X367029D01*
X364490Y172719D01*
X379725Y170180D02*
X384803D01*
X382264D01*
Y185415D01*
X379725Y182876D01*
X424177Y562605D02*
X419098D01*
X421637D01*
Y549909D01*
X419098Y547370D01*
X416559D01*
X414020Y549909D01*
X439412Y562605D02*
X429255D01*
Y554987D01*
X434333Y557527D01*
X436873D01*
X439412Y554987D01*
Y549909D01*
X436873Y547370D01*
X431794D01*
X429255Y549909D01*
X531592Y147322D02*
Y157479D01*
X529053Y160018D01*
X523974D01*
X521435Y157479D01*
Y147322D01*
X523974Y144783D01*
X529053D01*
X526514Y149861D02*
X531592Y144783D01*
X529053D02*
X531592Y147322D01*
X536670Y144783D02*
X541749D01*
X539210D01*
Y160018D01*
X536670Y157479D01*
X323847Y100329D02*
Y110486D01*
X321307Y113025D01*
X316229D01*
X313690Y110486D01*
Y100329D01*
X316229Y97790D01*
X321307D01*
X318768Y102868D02*
X323847Y97790D01*
X321307D02*
X323847Y100329D01*
X339082Y97790D02*
X328925D01*
X339082Y107947D01*
Y110486D01*
X336543Y113025D01*
X331464D01*
X328925Y110486D01*
X459737Y116839D02*
Y126996D01*
X457197Y129535D01*
X452119D01*
X449580Y126996D01*
Y116839D01*
X452119Y114300D01*
X457197D01*
X454658Y119378D02*
X459737Y114300D01*
X457197D02*
X459737Y116839D01*
X464815Y126996D02*
X467354Y129535D01*
X472433D01*
X474972Y126996D01*
Y124457D01*
X472433Y121917D01*
X469893D01*
X472433D01*
X474972Y119378D01*
Y116839D01*
X472433Y114300D01*
X467354D01*
X464815Y116839D01*
X308607Y35559D02*
Y45716D01*
X306068Y48255D01*
X300989D01*
X298450Y45716D01*
Y35559D01*
X300989Y33020D01*
X306068D01*
X303528Y38098D02*
X308607Y33020D01*
X306068D02*
X308607Y35559D01*
X321303Y33020D02*
Y48255D01*
X313685Y40637D01*
X323842D01*
X575029Y162817D02*
Y178052D01*
X582647D01*
X585186Y175513D01*
Y170434D01*
X582647Y167895D01*
X575029D01*
X580108D02*
X585186Y162817D01*
X590264D02*
X595343D01*
X592803D01*
Y178052D01*
X590264Y175513D01*
X485621Y144495D02*
Y159730D01*
X493239D01*
X495778Y157191D01*
Y152112D01*
X493239Y149573D01*
X485621D01*
X490700D02*
X495778Y144495D01*
X511013D02*
X500856D01*
X511013Y154651D01*
Y157191D01*
X508474Y159730D01*
X503396D01*
X500856Y157191D01*
X378460Y78740D02*
Y93975D01*
X386077D01*
X388617Y91436D01*
Y86357D01*
X386077Y83818D01*
X378460D01*
X383538D02*
X388617Y78740D01*
X393695Y91436D02*
X396234Y93975D01*
X401313D01*
X403852Y91436D01*
Y88897D01*
X401313Y86357D01*
X398773D01*
X401313D01*
X403852Y83818D01*
Y81279D01*
X401313Y78740D01*
X396234D01*
X393695Y81279D01*
X377190Y35603D02*
Y50838D01*
X384808D01*
X387347Y48299D01*
Y43221D01*
X384808Y40681D01*
X377190D01*
X382268D02*
X387347Y35603D01*
X400043D02*
Y50838D01*
X392425Y43221D01*
X402582D01*
X274320Y97790D02*
Y113025D01*
X281938D01*
X284477Y110486D01*
Y105407D01*
X281938Y102868D01*
X274320D01*
X279398D02*
X284477Y97790D01*
X299712Y113025D02*
X289555D01*
Y105407D01*
X294633Y107947D01*
X297173D01*
X299712Y105407D01*
Y100329D01*
X297173Y97790D01*
X292094D01*
X289555Y100329D01*
X413131Y114681D02*
Y129916D01*
X420748D01*
X423288Y127377D01*
Y122298D01*
X420748Y119759D01*
X413131D01*
X418209D02*
X423288Y114681D01*
X438523Y129916D02*
X433444Y127377D01*
X428366Y122298D01*
Y117220D01*
X430905Y114681D01*
X435984D01*
X438523Y117220D01*
Y119759D01*
X435984Y122298D01*
X428366D01*
X220980Y71120D02*
Y86355D01*
X228598D01*
X231137Y83816D01*
Y78738D01*
X228598Y76198D01*
X220980D01*
X226058D02*
X231137Y71120D01*
X236215Y86355D02*
X246372D01*
Y83816D01*
X236215Y73659D01*
Y71120D01*
X105410Y151130D02*
Y166365D01*
X113027D01*
X115567Y163826D01*
Y158748D01*
X113027Y156208D01*
X105410D01*
X110488D02*
X115567Y151130D01*
X128263D02*
X123184D01*
X120645Y153669D01*
Y158748D01*
X123184Y161287D01*
X128263D01*
X130802Y158748D01*
Y156208D01*
X120645D01*
X140958Y146052D02*
X143498D01*
X146037Y148591D01*
Y161287D01*
X138419D01*
X135880Y158748D01*
Y153669D01*
X138419Y151130D01*
X146037D01*
X151115D02*
X156194D01*
X153654D01*
Y166365D01*
X151115Y163826D01*
X152400Y364485D02*
Y351789D01*
X154939Y349250D01*
X160018D01*
X162557Y351789D01*
Y364485D01*
X167635Y349250D02*
X172713D01*
X170174D01*
Y364485D01*
X167635Y361946D01*
X261617Y203196D02*
X259077Y205735D01*
X253999D01*
X251460Y203196D01*
Y200657D01*
X253999Y198118D01*
X259077D01*
X261617Y195578D01*
Y193039D01*
X259077Y190500D01*
X253999D01*
X251460Y193039D01*
X266695Y190500D02*
X271773D01*
X269234D01*
Y205735D01*
X266695Y203196D01*
X279391Y187961D02*
X289548D01*
X304783Y205735D02*
X294626D01*
Y190500D01*
X304783D01*
X294626Y198118D02*
X299704D01*
X309861Y190500D02*
Y205735D01*
X320018Y190500D01*
Y205735D01*
X463550Y68575D02*
Y53340D01*
X471167D01*
X473707Y55879D01*
Y58418D01*
X471167Y60957D01*
X463550D01*
X471167D01*
X473707Y63497D01*
Y66036D01*
X471167Y68575D01*
X463550D01*
X478785Y53340D02*
Y63497D01*
X483863Y68575D01*
X488942Y63497D01*
Y53340D01*
Y60957D01*
X478785D01*
X494020Y68575D02*
X504177D01*
X499099D01*
Y53340D01*
X275590Y139695D02*
Y124460D01*
X283207D01*
X285747Y126999D01*
Y129538D01*
X283207Y132078D01*
X275590D01*
X283207D01*
X285747Y134617D01*
Y137156D01*
X283207Y139695D01*
X275590D01*
X290825Y124460D02*
Y134617D01*
X295903Y139695D01*
X300982Y134617D01*
Y124460D01*
Y132078D01*
X290825D01*
X306060Y139695D02*
X316217D01*
X311138D01*
Y124460D01*
X321295Y121921D02*
X331452D01*
X346687Y139695D02*
X336530D01*
Y124460D01*
X346687D01*
X336530Y132078D02*
X341609D01*
X351765Y124460D02*
Y139695D01*
X361922Y124460D01*
Y139695D01*
X498997Y195576D02*
X496457Y198115D01*
X491379D01*
X488840Y195576D01*
Y193037D01*
X491379Y190497D01*
X496457D01*
X498997Y187958D01*
Y185419D01*
X496457Y182880D01*
X491379D01*
X488840Y185419D01*
X514232Y182880D02*
X504075D01*
X514232Y193037D01*
Y195576D01*
X511693Y198115D01*
X506614D01*
X504075Y195576D01*
X519310Y180341D02*
X529467D01*
X544702Y198115D02*
X534545D01*
Y182880D01*
X544702D01*
X534545Y190497D02*
X539624D01*
X549780Y182880D02*
Y198115D01*
X559937Y182880D01*
Y198115D01*
D39*
X414164Y207550D02*
Y211550D01*
X412164Y209550D02*
X416164D01*
M02*
