G04 Layer_Color=8421504*
%FSLAX44Y44*%
%MOMM*%
G71*
G01*
G75*
%ADD10R,1.0000X0.5500*%
%ADD11R,1.3000X1.0500*%
%ADD12R,0.9000X0.9000*%
%ADD13R,1.5000X2.4000*%
%ADD14R,0.6000X0.4000*%
%ADD15R,0.8900X2.6000*%
%ADD16R,0.9000X0.9000*%
%ADD17R,1.0500X1.3000*%
%ADD18R,1.4250X1.0000*%
%ADD19R,1.4000X1.0000*%
%ADD20R,2.0000X4.2000*%
%ADD21R,1.2000X3.2000*%
%ADD22R,1.0000X1.0500*%
%ADD23R,1.0500X2.2000*%
%ADD24R,0.3000X0.4000*%
%ADD25C,2.0000*%
D10*
X148920Y118110D02*
D03*
X121920Y137110D02*
D03*
Y118110D02*
D03*
Y127610D02*
D03*
X148920Y137110D02*
D03*
D11*
X71120Y117856D02*
D03*
Y133604D02*
D03*
X172720Y134874D02*
D03*
Y119126D02*
D03*
X364490Y51054D02*
D03*
Y35306D02*
D03*
Y86614D02*
D03*
Y70866D02*
D03*
D12*
X75040Y580390D02*
D03*
X57040D02*
D03*
X45830Y519430D02*
D03*
X27830D02*
D03*
X85200D02*
D03*
X67200D02*
D03*
X416450Y101092D02*
D03*
X434450D02*
D03*
X488840Y130920D02*
D03*
X506840D02*
D03*
D13*
X65240Y556100D02*
D03*
D14*
X51740Y546100D02*
D03*
Y556100D02*
D03*
Y566100D02*
D03*
X78740D02*
D03*
Y556100D02*
D03*
Y546100D02*
D03*
D15*
X340360Y244570D02*
D03*
X327660D02*
D03*
X314960D02*
D03*
X302260D02*
D03*
X289560D02*
D03*
X276860D02*
D03*
X264160D02*
D03*
X251460D02*
D03*
X238760D02*
D03*
X226060D02*
D03*
X213360D02*
D03*
X340360Y369570D02*
D03*
X327660D02*
D03*
X314960D02*
D03*
X302260D02*
D03*
X289560D02*
D03*
X276860D02*
D03*
X264160D02*
D03*
X251460D02*
D03*
X238760D02*
D03*
X226060D02*
D03*
X213360D02*
D03*
X404160Y244570D02*
D03*
X416560D02*
D03*
X429260D02*
D03*
D16*
X260350Y87740D02*
D03*
Y69740D02*
D03*
X284480D02*
D03*
Y87740D02*
D03*
X417830Y34180D02*
D03*
Y52180D02*
D03*
D17*
X578866Y147320D02*
D03*
X594614D02*
D03*
X232664Y414020D02*
D03*
X216916D02*
D03*
D18*
X283210Y41158D02*
D03*
X488840Y92710D02*
D03*
X335280Y78740D02*
D03*
X549910Y121920D02*
D03*
D19*
X260460Y50158D02*
D03*
Y32158D02*
D03*
X466090Y101710D02*
D03*
Y83710D02*
D03*
X312530Y87740D02*
D03*
Y69740D02*
D03*
X527160Y130920D02*
D03*
Y112920D02*
D03*
D20*
X377580Y560260D02*
D03*
X548580D02*
D03*
D21*
X473080Y505460D02*
D03*
X493080D02*
D03*
X513080D02*
D03*
X453080D02*
D03*
X433080D02*
D03*
X413080D02*
D03*
D22*
X416306Y193040D02*
D03*
D23*
X401556Y178040D02*
D03*
X431056D02*
D03*
D24*
X419674Y215900D02*
D03*
X428674D02*
D03*
D25*
X232410Y196850D02*
D03*
X445770Y60960D02*
D03*
X260460Y113284D02*
D03*
X469900Y189230D02*
D03*
M02*
