G04 Layer_Physical_Order=1*
G04 Layer_Color=255*
%FSLAX44Y44*%
%MOMM*%
G71*
G01*
G75*
%ADD10R,1.0000X0.5500*%
%ADD11R,1.3000X1.0500*%
%ADD12R,0.9000X0.9000*%
%ADD13R,1.5000X2.4000*%
%ADD14R,0.6000X0.4000*%
%ADD15R,0.8900X2.6000*%
%ADD16R,0.9000X0.9000*%
%ADD17R,1.0500X1.3000*%
%ADD18R,1.4250X1.0000*%
%ADD19R,1.4000X1.0000*%
%ADD20R,2.0000X4.2000*%
%ADD21R,1.2000X3.2000*%
%ADD22R,1.0000X1.0500*%
%ADD23R,1.0500X2.2000*%
%ADD24R,0.3000X0.4000*%
%ADD25C,2.0000*%
%ADD26C,0.5000*%
%ADD27C,0.3000*%
%ADD28C,1.0000*%
%ADD29R,1.2930X6.9850*%
%ADD30R,1.2174X6.9850*%
%ADD31C,1.7500*%
%ADD32C,1.5240*%
%ADD33C,0.7000*%
G36*
X346595Y277611D02*
X347983D01*
X353661Y271933D01*
Y267496D01*
X347350Y260110D01*
X343661Y260110D01*
X341630D01*
Y244570D01*
X339090D01*
Y260110D01*
X333370D01*
Y259070D01*
X321710Y259070D01*
X314960D01*
X309010D01*
X302260D01*
X296310D01*
X289560D01*
X283801D01*
X283606Y259079D01*
X282223Y262253D01*
X281092Y269070D01*
X289633Y277611D01*
X291021D01*
X346595D01*
D02*
G37*
G36*
X670000Y485539D02*
X667916Y484032D01*
X660000Y481778D01*
X655024Y486754D01*
X653701Y487638D01*
X652140Y487948D01*
X652140Y487948D01*
X640905D01*
X640453Y489039D01*
Y489039D01*
X638810Y491180D01*
X636669Y492823D01*
X634175Y493856D01*
X631500Y494208D01*
X628824Y493856D01*
X626330Y492823D01*
X624189Y491180D01*
X622876Y489468D01*
X622546Y489039D01*
X622546Y489039D01*
X622310Y488469D01*
X622094Y487948D01*
X619009D01*
X525460D01*
X521818Y487948D01*
X521620Y489155D01*
X521620Y489792D01*
Y504190D01*
X513080D01*
Y505460D01*
X511810D01*
Y524000D01*
X510149D01*
X504540Y524000D01*
X504540Y524000D01*
X500580Y522960D01*
Y522960D01*
X490580D01*
X485580Y522960D01*
X480580D01*
X475580Y522960D01*
X465580Y522960D01*
X460580D01*
X455580Y522960D01*
X451189D01*
X441620Y524000D01*
X436011Y524000D01*
X434350D01*
Y505460D01*
Y486920D01*
X441620Y486920D01*
X444361Y484644D01*
X445608Y482063D01*
X445608D01*
X448515Y476045D01*
X447410Y474391D01*
X447022Y472440D01*
X447410Y470489D01*
X448515Y468835D01*
X450169Y467730D01*
X452120Y467342D01*
X454071Y467730D01*
X455725Y468835D01*
X456830Y470489D01*
X456830Y470489D01*
X457218Y472440D01*
X456830Y474391D01*
X455725Y476045D01*
X460550Y484367D01*
X462895Y486187D01*
X465228Y484345D01*
X470105Y476045D01*
X469000Y474391D01*
X468612Y472440D01*
X468612Y472440D01*
X469000Y470489D01*
X470105Y468835D01*
X471759Y467730D01*
X473710Y467342D01*
X473710Y467342D01*
X475661Y467730D01*
X475661D01*
X477315Y468835D01*
X477315Y468835D01*
X477937Y469766D01*
X482862Y470307D01*
X488438Y469598D01*
X489155Y468525D01*
X490809Y467420D01*
X490809Y467420D01*
X492760Y467032D01*
X492760Y467032D01*
X494711Y467420D01*
X494711Y467420D01*
X496365Y468525D01*
X496365D01*
X497470Y470179D01*
X497470Y470179D01*
X497858Y472130D01*
X500808Y475402D01*
X508990Y479792D01*
X517170D01*
X517170Y479792D01*
X517170D01*
D01*
X523157Y479792D01*
X619117D01*
X620031Y477948D01*
X623740Y470473D01*
X623532Y467667D01*
X622728Y465585D01*
X621638Y464164D01*
X620500Y461417D01*
X620280Y459740D01*
X631500D01*
X642720D01*
X642499Y461417D01*
X641361Y464164D01*
X640271Y465585D01*
X639467Y467667D01*
X639260Y470473D01*
X642012Y476021D01*
X652972Y477271D01*
X655052Y475191D01*
Y474300D01*
Y100370D01*
Y99479D01*
X646265Y90692D01*
X645375D01*
X541818D01*
X536983Y95635D01*
X536164Y96629D01*
X535660Y106420D01*
D01*
X540537Y114400D01*
X541285Y115420D01*
X545660Y115420D01*
X558535D01*
Y117842D01*
X621785D01*
X622237Y116751D01*
Y116751D01*
X623880Y114610D01*
X626021Y112967D01*
X628514Y111934D01*
X631190Y111582D01*
X633866Y111934D01*
X636359Y112967D01*
X638500Y114610D01*
X640143Y116751D01*
X641176Y119244D01*
X641528Y121920D01*
X641176Y124596D01*
X640143Y127089D01*
X638967Y128623D01*
X638360Y130195D01*
Y139045D01*
X638967Y140617D01*
X640143Y142151D01*
X641176Y144644D01*
X641528Y147320D01*
X641176Y149996D01*
X640143Y152489D01*
X638967Y154023D01*
X638360Y155595D01*
Y164445D01*
X638967Y166017D01*
X640143Y167551D01*
X641176Y170044D01*
X641528Y172720D01*
X641176Y175396D01*
X640143Y177889D01*
X638967Y179423D01*
X638360Y180995D01*
Y189845D01*
X638967Y191417D01*
X640143Y192951D01*
X641176Y195444D01*
X641528Y198120D01*
X641176Y200796D01*
X640143Y203289D01*
X638967Y204823D01*
X638360Y206395D01*
Y215245D01*
X638967Y216817D01*
X640143Y218351D01*
X641176Y220844D01*
X641528Y223520D01*
X641176Y226196D01*
X640143Y228689D01*
X639622Y229369D01*
X639024Y231486D01*
X638866Y235773D01*
X639157Y239723D01*
X639961Y241805D01*
X641052Y243226D01*
X642189Y245973D01*
X642410Y247650D01*
X631190D01*
X619970D01*
X620191Y245973D01*
X621328Y243226D01*
X622419Y241805D01*
X623223Y239723D01*
X623514Y235773D01*
X623356Y231486D01*
X622758Y229369D01*
X622237Y228689D01*
X620957Y226579D01*
X620467D01*
X500500D01*
X499107D01*
X483119Y242567D01*
Y243982D01*
Y286884D01*
Y289560D01*
X482886Y290730D01*
X482223Y291723D01*
X479256Y294690D01*
X452170Y321776D01*
X450042Y323904D01*
X450042Y323904D01*
X448284Y328697D01*
X448956Y333835D01*
X449574Y336028D01*
X470055Y356509D01*
X472063Y358517D01*
X472726Y359509D01*
X472959Y360680D01*
X472959Y363364D01*
Y408800D01*
Y410213D01*
X473927Y411181D01*
X491776Y429030D01*
X492757Y430011D01*
X494149D01*
X616490D01*
X624330Y421483D01*
Y415945D01*
X623723Y414373D01*
X622546Y412839D01*
X621514Y410346D01*
X621161Y407670D01*
X621514Y404994D01*
X622546Y402501D01*
X623723Y400967D01*
X624330Y399395D01*
Y390545D01*
X623723Y388973D01*
X622546Y387439D01*
X621514Y384946D01*
X621161Y382270D01*
X621514Y379594D01*
X622546Y377101D01*
X623723Y375567D01*
X624330Y373995D01*
Y365145D01*
X623723Y363573D01*
X622546Y362039D01*
X621514Y359546D01*
X621161Y356870D01*
X621514Y354194D01*
X622546Y351701D01*
X623723Y350167D01*
X624330Y348595D01*
Y339745D01*
X623723Y338173D01*
X622546Y336639D01*
X621514Y334146D01*
X621161Y331470D01*
X621514Y328794D01*
X622546Y326301D01*
X624189Y324160D01*
X626330Y322517D01*
X628824Y321484D01*
X631500Y321132D01*
X634175Y321484D01*
X636669Y322517D01*
X638810Y324160D01*
X640453Y326301D01*
X641486Y328794D01*
X641838Y331470D01*
X641486Y334146D01*
X640453Y336639D01*
X639276Y338173D01*
X638670Y339745D01*
Y348595D01*
X639276Y350167D01*
X640453Y351701D01*
X641486Y354194D01*
X641838Y356870D01*
X641486Y359546D01*
X640453Y362039D01*
X639276Y363573D01*
X638670Y365145D01*
Y373995D01*
X639276Y375567D01*
X640453Y377101D01*
X641486Y379594D01*
X641838Y382270D01*
X641486Y384946D01*
X640453Y387439D01*
X639276Y388973D01*
X638670Y390545D01*
Y399395D01*
X639276Y400967D01*
X640453Y402501D01*
X641486Y404994D01*
X641838Y407670D01*
X641486Y410346D01*
X640453Y412839D01*
X639276Y414373D01*
X638670Y415945D01*
Y424795D01*
X639276Y426367D01*
X640453Y427901D01*
X641486Y430394D01*
X641838Y433070D01*
X641486Y435746D01*
X640453Y438239D01*
X639932Y438919D01*
X639333Y441036D01*
X639175Y445323D01*
X639467Y449273D01*
X640271Y451355D01*
X641361Y452776D01*
X642499Y455523D01*
X642720Y457200D01*
X631500D01*
X620280D01*
X620500Y455523D01*
X621638Y452776D01*
X622728Y451355D01*
X623532Y449273D01*
X623824Y445323D01*
X623666Y441036D01*
X623068Y438919D01*
X622546Y438239D01*
X621267Y436129D01*
X620762D01*
X494297D01*
X491490D01*
X490320Y435896D01*
X490192Y435896D01*
X485756Y437001D01*
X479868Y439916D01*
X478420Y445089D01*
X478808Y447040D01*
X478420Y448991D01*
X477315Y450645D01*
X475661Y451750D01*
X473710Y452138D01*
X471759Y451750D01*
X470105Y450645D01*
X469000Y448991D01*
X469000Y448991D01*
X468612Y447040D01*
X468612Y447040D01*
X469000Y445089D01*
X469000Y445089D01*
X470105Y443435D01*
X470651Y442890D01*
X470651Y435747D01*
D01*
X470651Y431998D01*
X465332Y427858D01*
X455489Y432280D01*
X455489Y442890D01*
X456035Y443435D01*
X457140Y445089D01*
X457528Y447040D01*
X457140Y448991D01*
X456035Y450645D01*
X454381Y451750D01*
X452430Y452138D01*
X450479Y451750D01*
X448825Y450645D01*
X447720Y448991D01*
X447720Y448991D01*
X447332Y447040D01*
X447720Y445089D01*
X448825Y443435D01*
X449371Y442890D01*
X449371Y427359D01*
X448533Y421118D01*
X441462Y414047D01*
X414343Y386928D01*
X413522Y386107D01*
X412750Y386107D01*
X410799Y385719D01*
X409145Y384614D01*
X408040Y382960D01*
X407652Y381009D01*
X408040Y379058D01*
Y379058D01*
X409145Y377405D01*
Y377405D01*
X410799Y376300D01*
X410799Y376299D01*
X412750Y375911D01*
X412750Y375911D01*
X412750Y375911D01*
X416478Y376187D01*
X416940Y376208D01*
X419740Y376256D01*
X422539Y376208D01*
X423002Y376187D01*
X426729Y375911D01*
X426729Y375911D01*
X426729Y375911D01*
X428680Y376299D01*
X428680Y376299D01*
X428680Y376299D01*
X430334Y377405D01*
X430334D01*
X431439Y379058D01*
X431439Y379058D01*
X431827Y381009D01*
X431827Y381009D01*
X431827Y381781D01*
X456841Y406796D01*
X466841Y402653D01*
Y363360D01*
Y361947D01*
X465860Y360966D01*
X444214Y339320D01*
X443233Y338339D01*
X441838D01*
X272034D01*
X269240D01*
X268069Y338106D01*
X267077Y337443D01*
X265069Y335435D01*
X238605Y308971D01*
X236597Y306963D01*
X235934Y305971D01*
X235701Y304800D01*
X235701Y304800D01*
Y302051D01*
Y267541D01*
X232014Y259079D01*
X231819Y259070D01*
X220350Y259070D01*
Y260110D01*
X214630D01*
Y244570D01*
Y229030D01*
X220350D01*
X220354Y229002D01*
X220354D01*
X221161Y223492D01*
X220194Y216751D01*
X220080Y216581D01*
X220080Y216581D01*
X219692Y214630D01*
X219807Y214053D01*
X219807Y214050D01*
X220080Y212679D01*
X220102Y212640D01*
X221538Y205776D01*
X221257Y199976D01*
X221206Y199852D01*
X220811Y196850D01*
X221206Y193848D01*
X222365Y191050D01*
X224208Y188648D01*
X226610Y186805D01*
X229408Y185646D01*
X232410Y185251D01*
X235412Y185646D01*
X238210Y186805D01*
X240612Y188648D01*
X242455Y191050D01*
X243614Y193848D01*
X244009Y196850D01*
X243614Y199852D01*
X242455Y202650D01*
X240612Y205052D01*
X238725Y206499D01*
X231365Y212872D01*
X229500Y216581D01*
X228395Y218235D01*
X227849Y218780D01*
Y222125D01*
X230781Y226820D01*
X239434Y230070D01*
X244710D01*
X251460D01*
X257410D01*
X264160D01*
X270110D01*
X276860D01*
X282619D01*
X282814Y230061D01*
X286501Y221599D01*
Y218780D01*
X285955Y218235D01*
X284850Y216581D01*
X284462Y214630D01*
X284462Y214630D01*
X284850Y212679D01*
X285955Y211025D01*
X285955Y211025D01*
X287609Y209920D01*
X287609Y209920D01*
X289560Y209532D01*
X289560Y209532D01*
X291966Y209920D01*
X292426Y209920D01*
X299854D01*
X302260Y209532D01*
X307975Y209834D01*
X313690Y209532D01*
X321769Y206650D01*
X322728Y206259D01*
X323051Y206007D01*
X324601Y196264D01*
X324601Y193040D01*
X324601Y193040D01*
X324834Y191870D01*
X325497Y190877D01*
X328343Y188032D01*
X334761Y181613D01*
X334761Y176279D01*
X334761Y152740D01*
X334215Y152195D01*
X333110Y150541D01*
X332722Y148590D01*
X333110Y146639D01*
X334215Y144985D01*
X335869Y143880D01*
X337820Y143492D01*
X339771Y143880D01*
X341425Y144985D01*
X342530Y146639D01*
X342530Y146639D01*
X342918Y148590D01*
X342530Y150541D01*
X341425Y152195D01*
X340879Y152740D01*
X340879Y177173D01*
X340879Y182880D01*
X340646Y184051D01*
X339983Y185043D01*
X339983Y185043D01*
X332493Y192533D01*
X332527Y203558D01*
X333104Y204125D01*
X334526Y204977D01*
X339090Y207711D01*
Y214630D01*
X341630D01*
Y208724D01*
X342717Y208940D01*
X343661Y209571D01*
X348425Y208363D01*
X353661Y205665D01*
Y124425D01*
Y123037D01*
X346967Y116343D01*
X345571D01*
X272391D01*
X271641D01*
X270505Y119083D01*
X270505Y119084D01*
X270114Y119593D01*
X268662Y121486D01*
X266260Y123329D01*
X263462Y124488D01*
X260460Y124883D01*
X257458Y124488D01*
X254660Y123329D01*
X252258Y121486D01*
X250415Y119084D01*
X249256Y116286D01*
X248861Y113284D01*
X249256Y110282D01*
X250415Y107484D01*
X252258Y105082D01*
X254127Y103648D01*
X254185Y101665D01*
X254350Y91734D01*
Y81733D01*
Y73740D01*
Y63740D01*
X251960Y56658D01*
X251689Y46770D01*
X250920Y39698D01*
X250920Y34089D01*
Y33428D01*
X260460D01*
Y30888D01*
X250920D01*
X250920Y24618D01*
X242833Y20000D01*
X170000D01*
X150000Y0D01*
X0D01*
Y440000D01*
X145000D01*
X146470Y440072D01*
X149354Y440646D01*
X152071Y441771D01*
X154516Y443405D01*
X156595Y445484D01*
X158229Y447929D01*
X159354Y450646D01*
X159928Y453530D01*
X160000Y455000D01*
X160000D01*
Y507274D01*
X160003Y507277D01*
X160004Y507277D01*
X160777Y508434D01*
X161049Y509800D01*
X160777Y511166D01*
X160777Y511166D01*
X160003Y512323D01*
Y514277D01*
X160777Y515434D01*
X161049Y516800D01*
X160777Y518166D01*
X160003Y519323D01*
Y521277D01*
X160777Y522434D01*
X161049Y523800D01*
X160777Y525166D01*
X160003Y526323D01*
Y528277D01*
X160777Y529434D01*
X161049Y530800D01*
X160777Y532166D01*
X160003Y533323D01*
Y535277D01*
X160777Y536434D01*
X161049Y537800D01*
X160777Y539166D01*
X160003Y540323D01*
Y542277D01*
X160777Y543434D01*
X161049Y544800D01*
X160777Y546166D01*
X160003Y547323D01*
Y549277D01*
X160777Y550434D01*
X161049Y551800D01*
X160777Y553166D01*
X160003Y554323D01*
Y556277D01*
X160777Y557434D01*
X160777Y557435D01*
X161049Y558800D01*
X160777Y560166D01*
X160004Y561323D01*
X160003Y561323D01*
X160000Y561326D01*
Y600000D01*
X500000D01*
X520000Y620000D01*
X670000D01*
Y485539D01*
D02*
G37*
G36*
X441963Y309361D02*
X442944Y308380D01*
X465860Y285464D01*
X466841Y284483D01*
Y283088D01*
Y201162D01*
Y200411D01*
X464101Y199275D01*
X464100Y199275D01*
X463591Y198884D01*
X461698Y197432D01*
X459855Y195030D01*
X458696Y192232D01*
X458301Y189230D01*
X458696Y186228D01*
X459855Y183430D01*
X461698Y181028D01*
X463591Y179576D01*
X464100Y179185D01*
X464101Y179185D01*
X466841Y178049D01*
Y168910D01*
X466841Y168910D01*
X467074Y167740D01*
X467737Y166747D01*
X469745Y164739D01*
X487564Y146920D01*
X485852Y140053D01*
X483720Y136920D01*
X482840D01*
Y127192D01*
X482840Y127192D01*
Y124920D01*
X483671Y124712D01*
X485781Y118411D01*
Y108530D01*
X484590Y108140D01*
X474590Y108210D01*
Y108210D01*
X458655D01*
X458655Y108210D01*
X457590Y108210D01*
X457540Y107762D01*
X450081Y104769D01*
X445723D01*
X440938Y105999D01*
X440765Y106386D01*
X440450Y107092D01*
X426685Y107092D01*
X422722D01*
X410450Y107092D01*
X406582Y106977D01*
Y106977D01*
X400450Y106796D01*
X397648Y109598D01*
X387368Y119878D01*
X387368Y120650D01*
X386980Y122601D01*
X385875Y124255D01*
X384221Y125360D01*
X382270Y125748D01*
X380319Y125360D01*
X378665Y124255D01*
X377560Y122601D01*
X377172Y120650D01*
X377560Y118699D01*
Y118699D01*
X378665Y117045D01*
X380319Y115940D01*
X382270Y115552D01*
X383042Y115552D01*
X394704Y103891D01*
X399665Y98929D01*
X400657Y98266D01*
X401828Y98033D01*
X405067Y96928D01*
Y96928D01*
X410450Y95092D01*
X422722Y95092D01*
X428450D01*
X440450D01*
X440458Y95195D01*
X440484Y95432D01*
X441016Y95654D01*
Y95654D01*
X447357Y98301D01*
X449478Y98320D01*
X453979Y93559D01*
X456550Y86004D01*
Y84980D01*
X466090D01*
Y83710D01*
X467360D01*
Y76170D01*
X475630D01*
Y78109D01*
X480215Y86210D01*
X485630Y86210D01*
X497465D01*
Y99210D01*
X491899D01*
Y122364D01*
X500840Y124920D01*
X510568Y124920D01*
X517858Y118377D01*
X518660Y117331D01*
X518660Y106420D01*
X518660D01*
X522972Y98044D01*
X523282Y96483D01*
X524166Y95160D01*
X535596Y83730D01*
X536919Y82846D01*
X538480Y82536D01*
X540918D01*
X645517D01*
X647954D01*
X647954Y82536D01*
X649515Y82846D01*
X650838Y83730D01*
X660000Y92892D01*
X667916Y90638D01*
X670000Y89131D01*
Y0D01*
X520000D01*
X500000Y20000D01*
X431775D01*
X424870Y27140D01*
X424870Y30000D01*
Y32910D01*
X417830D01*
Y35450D01*
X424870D01*
Y36611D01*
X424870Y41220D01*
X429937Y49121D01*
X436990D01*
X436990Y49121D01*
X438161Y49354D01*
X439153Y50017D01*
X440027Y50891D01*
X442768Y49756D01*
X442768Y49756D01*
X443387Y49674D01*
X445770Y49361D01*
X448772Y49756D01*
X451570Y50915D01*
X453972Y52758D01*
X455815Y55160D01*
X456974Y57958D01*
X457369Y60960D01*
X456974Y63962D01*
X455815Y66760D01*
X460022Y75565D01*
X460594Y76170D01*
X464820D01*
Y82440D01*
X456550D01*
Y79236D01*
X456360Y78921D01*
X451930Y74976D01*
X448177Y72242D01*
X445770Y72559D01*
X442768Y72164D01*
X439970Y71005D01*
X437568Y69162D01*
X435725Y66760D01*
X434566Y63962D01*
X434171Y60960D01*
X433546Y60549D01*
X423830Y58180D01*
X411830D01*
X411622Y57349D01*
X405321Y55239D01*
X383147D01*
X379637Y65239D01*
X379791Y65495D01*
X382357Y66039D01*
X384221Y66410D01*
X385875Y67515D01*
X386980Y69169D01*
X387368Y71120D01*
X387368Y71120D01*
X386980Y73071D01*
X385875Y74725D01*
X385875Y74725D01*
X384221Y75830D01*
X384221Y75830D01*
X382270Y76218D01*
X382270Y76218D01*
X379984Y76545D01*
X376044Y79260D01*
X372490Y82112D01*
X372490Y87616D01*
Y93364D01*
X365848D01*
X356490Y93364D01*
Y93364D01*
X353340Y90910D01*
X351499Y90382D01*
X350176Y89498D01*
X350176Y89498D01*
X347685Y87807D01*
X343905Y85240D01*
X343312Y85240D01*
X331030D01*
X326655Y85240D01*
X321030Y92910D01*
Y94240D01*
X304030D01*
Y91818D01*
X290480D01*
Y93740D01*
X278480D01*
Y85740D01*
X278480Y81740D01*
Y76617D01*
X278480Y63740D01*
X272923Y56335D01*
X270573Y55566D01*
X266350Y64534D01*
Y73816D01*
Y81202D01*
Y91202D01*
Y91202D01*
X266623Y101089D01*
X266716Y103589D01*
X268662Y105082D01*
X270114Y106975D01*
X270505Y107484D01*
X270505Y107485D01*
X271641Y110225D01*
X272416D01*
X345449D01*
X348234D01*
X348234Y110225D01*
X349404Y110458D01*
X350397Y111121D01*
X358883Y119607D01*
X359546Y120599D01*
X359779Y121770D01*
Y124610D01*
Y200494D01*
X360633Y201967D01*
X367030Y208472D01*
X369387Y208940D01*
X369387Y208941D01*
X370206Y209488D01*
Y209488D01*
X371385Y210275D01*
X371385Y210275D01*
X371932Y211095D01*
Y211095D01*
X372720Y212273D01*
X372720Y212273D01*
X372936Y213360D01*
X367030D01*
Y215900D01*
X372936D01*
X372720Y216987D01*
X372720Y216987D01*
X372172Y217806D01*
D01*
X371385Y218985D01*
Y218985D01*
X370565Y219532D01*
Y219532D01*
X369387Y220319D01*
X369387Y220320D01*
X367030Y220788D01*
X360633Y227293D01*
X359779Y228766D01*
Y270360D01*
Y273200D01*
X359779Y273200D01*
X359546Y274370D01*
X358883Y275363D01*
X358883Y275363D01*
X351413Y282833D01*
X350421Y283496D01*
X349250Y283729D01*
X349250Y283729D01*
X346410D01*
X291206D01*
X288366D01*
X288366Y283729D01*
X287196Y283496D01*
X286203Y282833D01*
X286203Y282833D01*
X277219Y273848D01*
X267277Y277394D01*
X267219Y277441D01*
Y297183D01*
X279397Y309361D01*
X280785D01*
X440575D01*
X441963D01*
D02*
G37*
G36*
X298207Y74397D02*
X304030Y67274D01*
Y63240D01*
X304030Y63240D01*
X307121Y54245D01*
X307432Y53340D01*
X307820Y51389D01*
X308925Y49735D01*
X310579Y48630D01*
X312530Y48242D01*
X314481Y48630D01*
X314481Y48630D01*
X316135Y49735D01*
X317240Y51389D01*
X317240Y51389D01*
X317628Y53340D01*
X317939Y54245D01*
X321030Y63240D01*
D01*
X325907Y71220D01*
X326655Y72240D01*
X331030Y72240D01*
X343905D01*
X353217Y71750D01*
X356490Y64116D01*
X356490Y57804D01*
X355984Y48013D01*
X355450Y43096D01*
X355450Y36576D01*
X364490D01*
Y34036D01*
X355450D01*
X355450Y27516D01*
X349453Y20000D01*
X278087D01*
X270000Y24618D01*
Y26557D01*
X274585Y34658D01*
X280000Y34658D01*
X291835D01*
Y47658D01*
X287288D01*
Y63740D01*
X290480D01*
Y71740D01*
X290480Y75740D01*
X290875Y76363D01*
X294172Y76583D01*
X298207Y74397D01*
D02*
G37*
%LPC*%
G36*
X212090Y260110D02*
X206370D01*
Y245840D01*
X212090D01*
Y260110D01*
D02*
G37*
G36*
Y243300D02*
X206370D01*
Y229030D01*
X212090D01*
Y243300D01*
D02*
G37*
G36*
X642410Y273050D02*
X631190D01*
X619970D01*
X620191Y271373D01*
X621328Y268626D01*
X621763Y268059D01*
X623138Y264643D01*
Y258597D01*
X621763Y255181D01*
X621328Y254614D01*
X620191Y251867D01*
X619970Y250190D01*
X631190D01*
X642410D01*
X642189Y251867D01*
X641052Y254614D01*
X640617Y255181D01*
X639242Y258597D01*
Y264643D01*
X640617Y268059D01*
X641052Y268626D01*
X642189Y271373D01*
X642410Y273050D01*
D02*
G37*
G36*
X205530Y45251D02*
X195580D01*
Y35300D01*
X197257Y35521D01*
X200004Y36659D01*
X202362Y38468D01*
X204172Y40827D01*
X205309Y43573D01*
X205530Y45251D01*
D02*
G37*
G36*
X195580Y57741D02*
Y47790D01*
X205530D01*
X205309Y49468D01*
X204172Y52214D01*
X202362Y54573D01*
X200004Y56382D01*
X197257Y57520D01*
X195580Y57741D01*
D02*
G37*
G36*
X35000Y49625D02*
X31215Y49127D01*
X27687Y47666D01*
X24659Y45342D01*
X22334Y42313D01*
X20873Y38785D01*
X20375Y35000D01*
X20873Y31215D01*
X22334Y27687D01*
X24659Y24659D01*
X27687Y22334D01*
X31215Y20873D01*
X35000Y20375D01*
X38785Y20873D01*
X42313Y22334D01*
X45342Y24659D01*
X47666Y27687D01*
X49127Y31215D01*
X49625Y35000D01*
X49127Y38785D01*
X47666Y42313D01*
X45342Y45342D01*
X42313Y47666D01*
X38785Y49127D01*
X35000Y49625D01*
D02*
G37*
G36*
X181760Y117856D02*
X173990D01*
Y111336D01*
X181760D01*
Y117856D01*
D02*
G37*
G36*
X304800Y179112D02*
X301075Y178745D01*
X297494Y177659D01*
X294193Y175894D01*
X291300Y173520D01*
X288926Y170627D01*
X287161Y167326D01*
X286075Y163745D01*
X285708Y160020D01*
X286075Y156295D01*
X287161Y152714D01*
X288926Y149413D01*
X291300Y146520D01*
X294193Y144146D01*
X297494Y142381D01*
X301075Y141295D01*
X304800Y140928D01*
X308525Y141295D01*
X312106Y142381D01*
X315407Y144146D01*
X318300Y146520D01*
X320674Y149413D01*
X322439Y152714D01*
X323525Y156295D01*
X323892Y160020D01*
X323525Y163745D01*
X322439Y167326D01*
X320674Y170627D01*
X318300Y173520D01*
X315407Y175894D01*
X312106Y177659D01*
X308525Y178745D01*
X304800Y179112D01*
D02*
G37*
G36*
X171450Y182898D02*
X169499Y182510D01*
X167845Y181405D01*
X167845Y181405D01*
X166740Y179751D01*
X166740Y179751D01*
X166352Y177800D01*
X166352Y177800D01*
X166740Y175849D01*
X167372Y174904D01*
X167372Y150526D01*
X165528Y144338D01*
D01*
X164720Y141624D01*
X160957Y141517D01*
X151024Y141360D01*
X142420Y141360D01*
X141053Y141290D01*
X132420Y140845D01*
X132371Y140878D01*
X132370Y140878D01*
X130810Y141188D01*
X128420Y141360D01*
Y141360D01*
X115420D01*
Y132900D01*
X114380D01*
Y128880D01*
X121920D01*
Y126340D01*
X114380D01*
Y123778D01*
X114380Y122320D01*
X104540Y121934D01*
X89798D01*
Y121934D01*
X89798D01*
X81205Y125331D01*
X80160Y125814D01*
X80160Y132334D01*
X71120D01*
X62080D01*
Y131953D01*
X57675Y123778D01*
X53687Y121934D01*
X47663Y121934D01*
X44678Y124919D01*
X44678Y149262D01*
X46400Y149975D01*
X48802Y151818D01*
X50645Y154220D01*
X51804Y157018D01*
X52199Y160020D01*
X51804Y163022D01*
X50645Y165820D01*
X48802Y168222D01*
X46400Y170065D01*
X43602Y171224D01*
X40600Y171619D01*
X37598Y171224D01*
X34800Y170065D01*
X32398Y168222D01*
X30555Y165820D01*
X29396Y163022D01*
X29001Y160020D01*
X29396Y157018D01*
X30555Y154220D01*
X32398Y151818D01*
X34800Y149975D01*
X36522Y149262D01*
Y126400D01*
Y123230D01*
X36521Y123230D01*
X36832Y121669D01*
X37716Y120346D01*
X43090Y114972D01*
X43090Y114972D01*
X44413Y114088D01*
X45974Y113778D01*
X45974Y113778D01*
X53120D01*
X63120Y111106D01*
X68767Y111106D01*
X76415D01*
X84248Y105874D01*
X84248Y105874D01*
X84248D01*
X86092Y103994D01*
Y99479D01*
Y58958D01*
Y54610D01*
X86091Y54610D01*
X86402Y53049D01*
X87286Y51726D01*
X97446Y41566D01*
X97446Y41566D01*
X98769Y40682D01*
X100330Y40372D01*
X105476D01*
X157935D01*
X160708D01*
X161600Y39210D01*
X163741Y37567D01*
X166234Y36534D01*
X168910Y36182D01*
X171586Y36534D01*
X174079Y37567D01*
X174759Y38088D01*
X176876Y38687D01*
X181163Y38845D01*
X185113Y38553D01*
X187195Y37749D01*
X188616Y36659D01*
X191363Y35521D01*
X193040Y35300D01*
Y46521D01*
Y57741D01*
X191363Y57520D01*
X188616Y56382D01*
X187195Y55292D01*
X185113Y54488D01*
X181163Y54196D01*
X176876Y54354D01*
X174759Y54953D01*
X174079Y55474D01*
X171586Y56507D01*
X168910Y56859D01*
X166234Y56507D01*
X163741Y55474D01*
X161600Y53831D01*
X159957Y51690D01*
X159411Y50372D01*
X158924Y49196D01*
X158603Y48528D01*
X156982D01*
X105689D01*
X102019Y48528D01*
X94248Y56299D01*
X94248Y59593D01*
Y101138D01*
Y108471D01*
X102051Y113778D01*
X108182D01*
X116207D01*
X119870D01*
X119872Y113778D01*
X121666Y113778D01*
X121666Y113778D01*
X128420Y113860D01*
X130810Y114032D01*
X131380Y114145D01*
X134077Y113979D01*
X141380Y112820D01*
X144830Y112820D01*
X147650D01*
Y118110D01*
X150190D01*
Y112820D01*
X154295D01*
X163680Y111336D01*
X165845Y111336D01*
X171450D01*
Y119126D01*
X172720D01*
Y120396D01*
X181760D01*
Y126916D01*
X180720Y136485D01*
Y141624D01*
X180720D01*
X175528Y150861D01*
X175528Y174904D01*
X176160Y175849D01*
X176548Y177800D01*
X176548Y177800D01*
X176160Y179751D01*
X175055Y181405D01*
X173401Y182510D01*
X171450Y182898D01*
D02*
G37*
G36*
X69850Y141394D02*
X62080D01*
Y134874D01*
X69850D01*
Y141394D01*
D02*
G37*
G36*
X80160D02*
X72390D01*
Y134874D01*
X80160D01*
Y141394D01*
D02*
G37*
G36*
X304800Y477612D02*
X301075Y477245D01*
X297494Y476159D01*
X294193Y474394D01*
X291300Y472020D01*
X288926Y469127D01*
X287161Y465826D01*
X286075Y462245D01*
X285708Y458520D01*
X286075Y454795D01*
X287161Y451214D01*
X288926Y447913D01*
X290595Y445878D01*
X289971Y442393D01*
X287608Y437722D01*
X286676Y435878D01*
X272199Y435878D01*
X261964Y446114D01*
X260641Y446998D01*
X259080Y447308D01*
X259080Y447308D01*
X253950D01*
X213869D01*
X209550Y447308D01*
X207989Y446998D01*
X206666Y446114D01*
X200096Y439544D01*
X200096D01*
X192642Y432090D01*
Y432090D01*
X188900Y428348D01*
X170813Y410261D01*
X168566Y408014D01*
X167682Y406691D01*
X167372Y405130D01*
X167372Y405130D01*
Y399963D01*
Y311557D01*
X167372Y307696D01*
X166740Y306751D01*
X166352Y304800D01*
X166352Y304800D01*
X166740Y302849D01*
X166740Y302849D01*
X167845Y301195D01*
X167845Y301195D01*
X169499Y300090D01*
X169499Y300090D01*
X171450Y299702D01*
X171450Y299702D01*
X173401Y300090D01*
X173401Y300090D01*
X174346Y300722D01*
X177542Y300722D01*
X202607D01*
X205740D01*
X205740Y300721D01*
X207301Y301032D01*
X208624Y301916D01*
X212251Y305544D01*
X238557Y331849D01*
X241644Y334936D01*
X241644Y334936D01*
X242528Y336259D01*
X242838Y337820D01*
X242838Y337820D01*
Y340453D01*
X243981Y349979D01*
X251872Y355070D01*
X257410D01*
X264160D01*
X270110D01*
X276860D01*
X282810D01*
X289560D01*
X295510D01*
X302260D01*
X308210D01*
X320670Y355070D01*
Y354030D01*
X326390D01*
Y369570D01*
Y385110D01*
X320670D01*
Y384070D01*
X309010Y384070D01*
X302260D01*
X297771D01*
X296157Y384640D01*
X293889Y393067D01*
Y408600D01*
X294435Y409145D01*
X295540Y410799D01*
X295928Y412750D01*
X295928Y412750D01*
X295540Y414701D01*
X294435Y416355D01*
X294435Y416355D01*
X292781Y417460D01*
X292781Y417460D01*
X290830Y417848D01*
X291135Y427722D01*
X301359Y427722D01*
X308241D01*
X318241Y427722D01*
X324794D01*
X399297D01*
X402234Y427722D01*
X403179Y427090D01*
X405130Y426702D01*
X405130Y426702D01*
X407081Y427090D01*
X408735Y428195D01*
X409840Y429849D01*
X410228Y431800D01*
X409840Y433751D01*
X408735Y435405D01*
X407081Y436510D01*
X407081Y436510D01*
X405130Y436898D01*
X405130Y436898D01*
X403179Y436510D01*
X402234Y435878D01*
X399257Y435878D01*
X325517D01*
X322924D01*
X319629Y442393D01*
X319004Y445878D01*
X320674Y447913D01*
X322439Y451214D01*
X323525Y454795D01*
X323892Y458520D01*
X323525Y462245D01*
X322439Y465826D01*
X320674Y469127D01*
X318300Y472020D01*
X315407Y474394D01*
X312106Y476159D01*
X308525Y477245D01*
X304800Y477612D01*
D02*
G37*
G36*
X424540Y524000D02*
X414971Y522960D01*
X405580D01*
Y493632D01*
X405580Y487960D01*
X409002Y477960D01*
X409002Y474842D01*
X408700Y474391D01*
X408312Y472440D01*
X408312Y472440D01*
X408700Y470489D01*
X409805Y468835D01*
X411459Y467730D01*
X413410Y467342D01*
X415361Y467730D01*
X417015Y468835D01*
X418120Y470489D01*
X418120Y470489D01*
X418508Y472440D01*
X418508Y472440D01*
X418120Y474391D01*
X417158Y475830D01*
Y480599D01*
X424540Y486920D01*
X430149Y486920D01*
X431810D01*
Y505460D01*
Y524000D01*
X424540Y524000D01*
D02*
G37*
G36*
X347350Y368300D02*
X341630D01*
Y354030D01*
X347350D01*
Y368300D01*
D02*
G37*
G36*
Y385110D02*
X341630D01*
Y370840D01*
X347350D01*
Y385110D01*
D02*
G37*
G36*
X560080Y582760D02*
X537080D01*
Y537760D01*
X560080D01*
Y582760D01*
D02*
G37*
G36*
X635000Y599625D02*
X631215Y599127D01*
X627687Y597666D01*
X624659Y595341D01*
X622334Y592313D01*
X620873Y588785D01*
X620375Y585000D01*
X620873Y581215D01*
X622334Y577687D01*
X624659Y574659D01*
X627687Y572334D01*
X631215Y570873D01*
X635000Y570375D01*
X638785Y570873D01*
X642313Y572334D01*
X645341Y574659D01*
X647666Y577687D01*
X649127Y581215D01*
X649625Y585000D01*
X649127Y588785D01*
X647666Y592313D01*
X645341Y595341D01*
X642313Y597666D01*
X638785Y599127D01*
X635000Y599625D01*
D02*
G37*
G36*
X514350Y524000D02*
Y506730D01*
X521620D01*
Y524000D01*
X514350D01*
D02*
G37*
G36*
X389080Y582760D02*
X366080D01*
Y537760D01*
X389080D01*
Y582760D01*
D02*
G37*
G36*
X339090Y385110D02*
X328930D01*
Y369570D01*
Y354030D01*
X339090D01*
Y369570D01*
Y385110D01*
D02*
G37*
G36*
X632460Y285540D02*
Y275590D01*
X642410D01*
X642189Y277267D01*
X641052Y280014D01*
X639242Y282372D01*
X636884Y284182D01*
X634137Y285319D01*
X632460Y285540D01*
D02*
G37*
G36*
X39330Y299501D02*
X37326Y299237D01*
X34276Y297974D01*
X31656Y295964D01*
X29646Y293344D01*
X28383Y290294D01*
X28119Y288290D01*
X39330D01*
Y299501D01*
D02*
G37*
G36*
X629920Y285540D02*
X628243Y285319D01*
X625496Y284182D01*
X623138Y282372D01*
X621328Y280014D01*
X620191Y277267D01*
X619970Y275590D01*
X629920D01*
Y285540D01*
D02*
G37*
G36*
X39330Y285750D02*
X28119D01*
X28383Y283746D01*
X29646Y280696D01*
X31656Y278076D01*
X34276Y276066D01*
X37326Y274803D01*
X39330Y274539D01*
Y285750D01*
D02*
G37*
G36*
X53081D02*
X41870D01*
Y274539D01*
X43874Y274803D01*
X46924Y276066D01*
X49544Y278076D01*
X51554Y280696D01*
X52817Y283746D01*
X53081Y285750D01*
D02*
G37*
G36*
X41870Y299501D02*
Y288290D01*
X53081D01*
X52817Y290294D01*
X51554Y293344D01*
X49544Y295964D01*
X46924Y297974D01*
X43874Y299237D01*
X41870Y299501D01*
D02*
G37*
%LPD*%
G36*
X257391Y439152D02*
X267626Y428916D01*
X268949Y428032D01*
X270510Y427722D01*
X285813D01*
X290525D01*
X290830Y417848D01*
X290155Y417714D01*
X288130Y417430D01*
X283845Y417257D01*
X279559Y417430D01*
X277535Y417714D01*
X276860Y417848D01*
X276860D01*
X274909Y417460D01*
X274909Y417460D01*
X273255Y416355D01*
X272150Y414701D01*
X272150Y414701D01*
X271762Y412750D01*
X271762Y412750D01*
X272150Y410799D01*
X265365Y403306D01*
X264160Y402608D01*
X261754Y402220D01*
X253866D01*
X251460Y402608D01*
X250298Y402377D01*
X248891Y402503D01*
X247147Y403301D01*
X240298Y410464D01*
X239414Y420098D01*
Y422020D01*
X234275D01*
X224706Y423060D01*
X218784D01*
X218409Y423064D01*
X209049Y429465D01*
X209010Y432848D01*
X209011Y436923D01*
X211239Y439152D01*
X214642Y439152D01*
X253724D01*
X257391Y439152D01*
D02*
G37*
G36*
X204688Y419412D02*
X209126Y413298D01*
Y404980D01*
X215646D01*
Y414020D01*
X218186D01*
Y404980D01*
X224706D01*
X232142Y398789D01*
Y394014D01*
X232019Y384781D01*
X230298Y384070D01*
X220350Y384070D01*
Y385110D01*
X214630D01*
Y369570D01*
Y354030D01*
X220350D01*
Y355070D01*
X225648D01*
X233539Y349979D01*
X233539Y349979D01*
X233539D01*
X234682Y346177D01*
X234682Y339509D01*
X232268Y337096D01*
X206643Y311471D01*
X204051Y308878D01*
X184765Y308878D01*
X175528Y318115D01*
Y399814D01*
X175528Y403441D01*
X195263Y423175D01*
X199242Y423176D01*
X204688Y419412D01*
D02*
G37*
%LPC*%
G36*
X212090Y368300D02*
X206370D01*
Y354030D01*
X212090D01*
Y368300D01*
D02*
G37*
G36*
Y385110D02*
X206370D01*
Y370840D01*
X212090D01*
Y385110D01*
D02*
G37*
G36*
X438846Y191580D02*
X432326D01*
Y179310D01*
X438846D01*
Y191580D01*
D02*
G37*
G36*
X400286D02*
X393766D01*
Y179310D01*
X400286D01*
Y191580D01*
D02*
G37*
G36*
Y176770D02*
X393766D01*
Y164500D01*
X400286D01*
Y176770D01*
D02*
G37*
G36*
X438846D02*
X432326D01*
Y164500D01*
X438846D01*
Y176770D01*
D02*
G37*
G36*
X402890Y243300D02*
X397170D01*
Y229030D01*
X402890D01*
Y243300D01*
D02*
G37*
G36*
X625000Y49625D02*
X621215Y49127D01*
X617687Y47666D01*
X614659Y45342D01*
X612334Y42313D01*
X610873Y38785D01*
X610375Y35000D01*
X610873Y31215D01*
X612334Y27687D01*
X614659Y24659D01*
X617687Y22334D01*
X621215Y20873D01*
X625000Y20375D01*
X628785Y20873D01*
X632313Y22334D01*
X635341Y24659D01*
X637666Y27687D01*
X639127Y31215D01*
X639625Y35000D01*
X639127Y38785D01*
X637666Y42313D01*
X635341Y45342D01*
X632313Y47666D01*
X628785Y49127D01*
X625000Y49625D01*
D02*
G37*
G36*
X412265Y298712D02*
X408155D01*
X408013Y298653D01*
X407862Y298685D01*
X403820Y297942D01*
X403691Y297858D01*
X403536Y297863D01*
X399696Y296401D01*
X399584Y296296D01*
X399431Y296272D01*
X395918Y294140D01*
X395827Y294016D01*
X395681Y293965D01*
X392611Y291233D01*
X392544Y291094D01*
X392410Y291018D01*
X389885Y287776D01*
X389844Y287628D01*
X389725Y287528D01*
X387828Y283883D01*
X387814Y283730D01*
X387716Y283611D01*
X386509Y279683D01*
X386524Y279529D01*
X386448Y279394D01*
X385971Y275313D01*
X386013Y275164D01*
X385964Y275018D01*
X386232Y270918D01*
X386301Y270779D01*
X386278Y270627D01*
X387284Y266642D01*
X387376Y266519D01*
X387382Y266364D01*
X387382Y266364D01*
X389091Y262628D01*
X389204Y262523D01*
X389238Y262372D01*
X389238Y262372D01*
X390416Y260689D01*
X390541Y260609D01*
X390598Y260472D01*
X391051Y260284D01*
X391464Y260021D01*
X397170Y252668D01*
Y245840D01*
X404160D01*
Y244570D01*
X405430D01*
Y229030D01*
X409500D01*
Y215900D01*
Y200290D01*
X409306D01*
Y191580D01*
X402826D01*
Y178040D01*
Y164500D01*
X407062D01*
Y158750D01*
X407538Y157602D01*
X408686Y157126D01*
X423926D01*
X425074Y157602D01*
X425550Y158750D01*
Y164500D01*
X429786D01*
Y178040D01*
Y191580D01*
X425123D01*
X423620Y193294D01*
Y201780D01*
X424423Y209364D01*
X432714Y211360D01*
Y214630D01*
X428674D01*
Y217170D01*
X432714D01*
Y220440D01*
X436118Y229030D01*
X436250D01*
Y243300D01*
X429260D01*
Y245840D01*
X436250D01*
Y260110D01*
X436250D01*
X434011Y270110D01*
X434142Y270627D01*
X434119Y270779D01*
X434188Y270918D01*
X434456Y275018D01*
X434407Y275164D01*
X434449Y275313D01*
X433972Y279394D01*
X433896Y279529D01*
X433911Y279683D01*
X432704Y283611D01*
X432606Y283730D01*
X432592Y283883D01*
X430695Y287528D01*
X430576Y287628D01*
X430535Y287776D01*
X428010Y291018D01*
X427876Y291094D01*
X427809Y291233D01*
X424739Y293965D01*
X424593Y294016D01*
X424502Y294140D01*
X420989Y296272D01*
X420836Y296296D01*
X420724Y296401D01*
X416884Y297863D01*
X416729Y297858D01*
X416600Y297942D01*
X412558Y298685D01*
X412407Y298653D01*
X412265Y298712D01*
D02*
G37*
%LPD*%
D10*
X148920Y118110D02*
D03*
X121920Y137110D02*
D03*
Y118110D02*
D03*
Y127610D02*
D03*
X148920Y137110D02*
D03*
D11*
X71120Y117856D02*
D03*
Y133604D02*
D03*
X172720Y134874D02*
D03*
Y119126D02*
D03*
X364490Y51054D02*
D03*
Y35306D02*
D03*
Y86614D02*
D03*
Y70866D02*
D03*
D12*
X75040Y580390D02*
D03*
X57040D02*
D03*
X45830Y519430D02*
D03*
X27830D02*
D03*
X85200D02*
D03*
X67200D02*
D03*
X416450Y101092D02*
D03*
X434450D02*
D03*
X488840Y130920D02*
D03*
X506840D02*
D03*
D13*
X65240Y556100D02*
D03*
D14*
X51740Y546100D02*
D03*
Y556100D02*
D03*
Y566100D02*
D03*
X78740D02*
D03*
Y556100D02*
D03*
Y546100D02*
D03*
D15*
X340360Y244570D02*
D03*
X327660D02*
D03*
X314960D02*
D03*
X302260D02*
D03*
X289560D02*
D03*
X276860D02*
D03*
X264160D02*
D03*
X251460D02*
D03*
X238760D02*
D03*
X226060D02*
D03*
X213360D02*
D03*
X340360Y369570D02*
D03*
X327660D02*
D03*
X314960D02*
D03*
X302260D02*
D03*
X289560D02*
D03*
X276860D02*
D03*
X264160D02*
D03*
X251460D02*
D03*
X238760D02*
D03*
X226060D02*
D03*
X213360D02*
D03*
X404160Y244570D02*
D03*
X416560D02*
D03*
X429260D02*
D03*
D16*
X260350Y87740D02*
D03*
Y69740D02*
D03*
X284480D02*
D03*
Y87740D02*
D03*
X417830Y34180D02*
D03*
Y52180D02*
D03*
D17*
X578866Y147320D02*
D03*
X594614D02*
D03*
X232664Y414020D02*
D03*
X216916D02*
D03*
D18*
X283210Y41158D02*
D03*
X488840Y92710D02*
D03*
X335280Y78740D02*
D03*
X549910Y121920D02*
D03*
D19*
X260460Y50158D02*
D03*
Y32158D02*
D03*
X466090Y101710D02*
D03*
Y83710D02*
D03*
X312530Y87740D02*
D03*
Y69740D02*
D03*
X527160Y130920D02*
D03*
Y112920D02*
D03*
D20*
X377580Y560260D02*
D03*
X548580D02*
D03*
D21*
X473080Y505460D02*
D03*
X493080D02*
D03*
X513080D02*
D03*
X453080D02*
D03*
X433080D02*
D03*
X413080D02*
D03*
D22*
X416306Y193040D02*
D03*
D23*
X401556Y178040D02*
D03*
X431056D02*
D03*
D24*
X419674Y215900D02*
D03*
X428674D02*
D03*
D25*
X232410Y196850D02*
D03*
X445770Y60960D02*
D03*
X260460Y113284D02*
D03*
X469900Y189230D02*
D03*
X40600Y287020D02*
D03*
Y160020D02*
D03*
D26*
X69850Y287020D02*
X76200D01*
X40600D02*
X69850D01*
X71120Y285750D01*
Y133604D02*
Y285750D01*
X171450Y136144D02*
X172720Y134874D01*
X148920Y137110D02*
X151156Y134874D01*
X172720D01*
X149936Y119126D02*
X172720D01*
X220980Y118110D02*
X236220Y102870D01*
X213360Y118110D02*
X220980D01*
X213360D02*
Y244570D01*
X173736Y118110D02*
X213360D01*
X118650Y244570D02*
X213360D01*
X76200Y287020D02*
X118650Y244570D01*
X148920Y118110D02*
X149174Y117856D01*
X100990Y127610D02*
X121920D01*
X94996Y133604D02*
X100990Y127610D01*
X71120Y133604D02*
X94996D01*
X71120Y117856D02*
X121666D01*
X45974D02*
X71120D01*
X40600Y123230D02*
X45974Y117856D01*
X40600Y123230D02*
Y160020D01*
X90170Y54610D02*
Y117126D01*
X367030Y214630D02*
X401620D01*
X402890Y215900D01*
X404160Y214630D01*
X100330Y44450D02*
X168262D01*
X466090Y72390D02*
Y83710D01*
Y72390D02*
X474980Y63500D01*
X327660Y369570D02*
Y421640D01*
X327660Y369570D02*
X327660Y369570D01*
X416560Y421640D02*
X433080Y438160D01*
X267970Y421640D02*
X416560D01*
X255270Y434340D02*
X267970Y421640D01*
X642909Y458520D02*
X647954Y453475D01*
Y278384D02*
Y453475D01*
X643890Y274320D02*
X647954Y278384D01*
X404160Y214630D02*
Y244570D01*
Y180644D02*
Y214630D01*
X340360D02*
Y244570D01*
X384810Y144780D02*
X424706D01*
X401556Y145814D02*
X402590Y144780D01*
X401556Y145814D02*
Y178040D01*
X405240Y83710D02*
X466090D01*
X373380Y115570D02*
X405240Y83710D01*
X373380Y115570D02*
Y133350D01*
X384810Y144780D01*
X327660Y349250D02*
Y369570D01*
X322580Y344170D02*
X327660Y349250D01*
X261620Y344170D02*
X322580D01*
X213360Y295910D02*
X261620Y344170D01*
X213360Y244570D02*
Y295910D01*
X238760Y337820D02*
Y369570D01*
X205740Y304800D02*
X238760Y337820D01*
X171450Y304800D02*
X205740D01*
X431056Y178040D02*
Y213518D01*
Y151130D02*
Y178040D01*
X424706Y144780D02*
X431056Y151130D01*
X429260Y216486D02*
Y244570D01*
Y215314D02*
X431056Y213518D01*
X631500Y483870D02*
X652140D01*
X659130Y476880D01*
Y97790D02*
Y476880D01*
X647954Y86614D02*
X659130Y97790D01*
X538480Y86614D02*
X647954D01*
X527050Y98044D02*
X538480Y86614D01*
X527050Y98044D02*
Y112810D01*
X527160Y112920D01*
X631550Y458520D02*
X642909D01*
X631190Y274320D02*
X643890D01*
X629920Y485450D02*
X631500Y483870D01*
X270510Y431800D02*
X405130D01*
X259080Y443230D02*
X270510Y431800D01*
X209550Y443230D02*
X259080D01*
X171450Y405130D02*
X209550Y443230D01*
X171450Y304800D02*
Y405130D01*
Y136144D02*
Y177800D01*
X433070Y458470D02*
X631500D01*
X433070D02*
X433080Y458460D01*
Y438160D02*
Y458460D01*
X214376Y374396D02*
Y415290D01*
X327660Y369570D02*
X340360D01*
X224790Y434340D02*
X255270D01*
X216916Y426466D02*
X224790Y434340D01*
X216916Y414020D02*
Y426466D01*
X631190Y248920D02*
Y274320D01*
X631500Y458470D02*
X631550Y458520D01*
X549910Y121920D02*
X631190D01*
X236220Y372110D02*
X238760Y369570D01*
X236220Y372110D02*
Y410464D01*
X232664Y414020D02*
X236220Y410464D01*
X121920Y118110D02*
X130810D01*
X134620Y121920D01*
Y133300D01*
X130810Y137110D02*
X134620Y133300D01*
X121920Y137110D02*
X130810D01*
X90170Y54610D02*
X100330Y44450D01*
X413080Y472770D02*
Y505460D01*
Y472770D02*
X413410Y472440D01*
X433080Y458480D02*
Y505460D01*
X492760Y483870D02*
X631500D01*
X492760Y472130D02*
Y483870D01*
Y505140D01*
X513080Y505460D02*
Y530860D01*
X505460Y538480D02*
X513080Y530860D01*
X433080Y505460D02*
Y530870D01*
X440690Y538480D01*
X505460D01*
X474980Y41800D02*
Y63500D01*
X467360Y34180D02*
X474980Y41800D01*
X417830Y34180D02*
X467360D01*
X335170D02*
X417830D01*
X329832Y28842D02*
X335170Y34180D01*
X263776Y28842D02*
X329832D01*
X260460Y32158D02*
X263776Y28842D01*
X248538Y32158D02*
X260460D01*
X235598Y45098D02*
X248538Y32158D01*
X260460Y50158D02*
Y69630D01*
X283210Y41158D02*
Y68470D01*
X284480Y87740D02*
X312530D01*
Y53340D02*
Y69740D01*
X335280Y78740D02*
X345186D01*
X353060Y86614D01*
X364490D01*
X236220Y45720D02*
Y102870D01*
X194310Y45098D02*
X235598D01*
D27*
X356720Y121770D02*
Y273200D01*
X348234Y113284D02*
X356720Y121770D01*
X349250Y280670D02*
X356720Y273200D01*
X35450Y580390D02*
X57040D01*
X65240Y566890D02*
X75040Y576690D01*
Y580390D01*
X65240Y556100D02*
X78740D01*
X65240D02*
X69140Y560000D01*
X27830Y556100D02*
X51740D01*
X27780D02*
X27830D01*
Y519430D02*
Y556100D01*
Y572770D01*
X35450Y580390D01*
X78740Y556100D02*
X92870D01*
X104140Y544830D01*
Y496570D02*
Y544830D01*
X85200Y519430D02*
Y539640D01*
Y503030D02*
Y519430D01*
X78740Y546100D02*
X85200Y539640D01*
X78740Y496570D02*
X85200Y503030D01*
X65766Y517996D02*
X67200Y519430D01*
X65766Y490964D02*
Y517996D01*
X58621Y483820D02*
X65766Y490964D01*
X40690Y483820D02*
X58621D01*
X27940Y496570D02*
X40690Y483820D01*
X53340Y496570D02*
Y511920D01*
X45830Y519430D02*
X53340Y511920D01*
X45830Y519430D02*
Y544940D01*
X46990Y546100D01*
X51740D01*
X27940Y496570D02*
Y519320D01*
X224790Y194310D02*
Y214630D01*
X260460Y113284D02*
X348234D01*
X469900Y186690D02*
Y285750D01*
Y168910D02*
Y186690D01*
Y189230D01*
X337820Y148590D02*
Y182880D01*
X327660Y193040D02*
X337820Y182880D01*
X327660Y193040D02*
Y244570D01*
X382016Y70866D02*
X382270Y71120D01*
X364490Y70866D02*
X382016D01*
X224790Y214630D02*
Y243300D01*
X382270Y120650D02*
X401828Y101092D01*
X416450D01*
X313690Y214630D02*
Y243300D01*
X289560Y214630D02*
Y244570D01*
X412750Y381009D02*
X452430Y420689D01*
Y447040D01*
X302260Y214630D02*
Y244570D01*
X426729Y381009D02*
X473710Y427990D01*
Y447040D01*
X251460Y369570D02*
Y397510D01*
X264160Y369570D02*
Y397510D01*
X289560Y369570D02*
X290830Y370840D01*
Y412750D01*
X276860Y369570D02*
Y412750D01*
X594614Y147320D02*
X631190D01*
X506840Y130920D02*
X527160D01*
X488840Y92710D02*
Y130920D01*
X435068Y101710D02*
X466090D01*
X276860Y244570D02*
Y269164D01*
X288366Y280670D01*
X349250D01*
X264160Y244570D02*
Y298450D01*
X278130Y312420D01*
X443230D01*
X469900Y285750D01*
Y168910D02*
X491490Y147320D01*
X578866D01*
X251460Y244570D02*
Y300990D01*
X274320Y323850D01*
X445770D01*
X480060Y289560D01*
Y241300D02*
Y289560D01*
Y241300D02*
X497840Y223520D01*
X631190D01*
X238760Y244570D02*
Y304800D01*
X269240Y335280D01*
X444500D01*
X469900Y360680D01*
Y411480D01*
X491490Y433070D01*
X631500D01*
X452120Y472440D02*
Y504500D01*
X473710Y472440D02*
Y504830D01*
X417830Y52180D02*
X436990D01*
X445770Y60960D01*
X365616Y52180D02*
X417830D01*
X365616D02*
Y69740D01*
X260460Y87850D02*
Y113284D01*
D28*
X416560Y215900D02*
Y244570D01*
Y193294D02*
Y215900D01*
D29*
X401690Y222885D02*
D03*
D30*
X430793D02*
D03*
D31*
X27940Y496570D02*
D03*
X53340D02*
D03*
X104140D02*
D03*
X78740D02*
D03*
X631500Y331470D02*
D03*
Y356870D02*
D03*
Y458470D02*
D03*
Y483870D02*
D03*
Y433070D02*
D03*
Y407670D02*
D03*
Y382270D02*
D03*
X631190Y121920D02*
D03*
Y147320D02*
D03*
Y248920D02*
D03*
Y274320D02*
D03*
Y223520D02*
D03*
Y198120D02*
D03*
Y172720D02*
D03*
X168910Y46521D02*
D03*
X194310D02*
D03*
D32*
X304800Y458520D02*
D03*
Y160020D02*
D03*
D33*
X656603Y547670D02*
D03*
X636603Y507670D02*
D03*
Y107670D02*
D03*
X656603Y67670D02*
D03*
X596603Y587670D02*
D03*
X616603Y547670D02*
D03*
X596603Y507670D02*
D03*
X616603Y467670D02*
D03*
Y307670D02*
D03*
X596603Y267670D02*
D03*
Y107670D02*
D03*
X616603Y67670D02*
D03*
X596603Y27671D02*
D03*
X556603Y587670D02*
D03*
X576603Y547670D02*
D03*
X556603Y507670D02*
D03*
X576603Y307670D02*
D03*
X556603Y267670D02*
D03*
Y107670D02*
D03*
X576603Y67670D02*
D03*
X556603Y27671D02*
D03*
X516603Y587670D02*
D03*
Y347671D02*
D03*
Y267670D02*
D03*
X536603Y67670D02*
D03*
X516603Y27671D02*
D03*
X476603Y587670D02*
D03*
X496603Y547670D02*
D03*
Y387670D02*
D03*
X476603Y347671D02*
D03*
X496603Y307670D02*
D03*
Y67670D02*
D03*
X476603Y27671D02*
D03*
X436603Y587670D02*
D03*
X456603Y547670D02*
D03*
Y387670D02*
D03*
X436603Y347671D02*
D03*
X456603Y227670D02*
D03*
X436603Y27671D02*
D03*
X396603Y587670D02*
D03*
X416603Y547670D02*
D03*
X396603Y507670D02*
D03*
X416603Y67670D02*
D03*
X356603Y587670D02*
D03*
Y507670D02*
D03*
X376603Y387670D02*
D03*
X356603Y347671D02*
D03*
X376603Y227670D02*
D03*
X356603Y107670D02*
D03*
X316603Y587670D02*
D03*
X336603Y547670D02*
D03*
X316603Y507670D02*
D03*
Y347671D02*
D03*
X336603Y67670D02*
D03*
X316603Y27671D02*
D03*
X276603Y587670D02*
D03*
X296603Y547670D02*
D03*
X276603Y507670D02*
D03*
Y347671D02*
D03*
Y187670D02*
D03*
X296603Y67670D02*
D03*
X236603Y587670D02*
D03*
X256603Y547670D02*
D03*
X236603Y507670D02*
D03*
X256603Y467670D02*
D03*
X236603Y427670D02*
D03*
X256603Y147670D02*
D03*
X236603Y107670D02*
D03*
X196603Y587670D02*
D03*
X216603Y547670D02*
D03*
X196603Y507670D02*
D03*
Y347671D02*
D03*
Y267670D02*
D03*
Y187670D02*
D03*
Y107670D02*
D03*
X216603Y67670D02*
D03*
X176603Y547670D02*
D03*
Y467670D02*
D03*
X156603Y427670D02*
D03*
Y347671D02*
D03*
Y267670D02*
D03*
Y187670D02*
D03*
Y107670D02*
D03*
Y27671D02*
D03*
X116603Y427670D02*
D03*
X136603Y387670D02*
D03*
X116603Y347671D02*
D03*
X136603Y307670D02*
D03*
X116603Y267670D02*
D03*
X136603Y227670D02*
D03*
X116603Y187670D02*
D03*
X136603Y147670D02*
D03*
X116603Y107670D02*
D03*
X136603Y67670D02*
D03*
X116603Y27671D02*
D03*
X76603Y427670D02*
D03*
X96603Y387670D02*
D03*
X76603Y347671D02*
D03*
X96603Y307670D02*
D03*
X76603Y267670D02*
D03*
X96603Y227670D02*
D03*
X76603Y187670D02*
D03*
X96603Y147670D02*
D03*
X76603Y27671D02*
D03*
X36603Y427670D02*
D03*
X56603Y387670D02*
D03*
X36603Y347671D02*
D03*
X56603Y307670D02*
D03*
X36603Y267670D02*
D03*
X56603Y227670D02*
D03*
X36603Y187670D02*
D03*
X56603Y147670D02*
D03*
X36603Y107670D02*
D03*
X56603Y67670D02*
D03*
X367030Y214630D02*
D03*
X340360D02*
D03*
X337820Y148590D02*
D03*
X382270Y71120D02*
D03*
X224790Y214630D02*
D03*
X382270Y120650D02*
D03*
X313690Y214630D02*
D03*
X289560D02*
D03*
X412750Y381009D02*
D03*
X452430Y447040D02*
D03*
X302260Y214630D02*
D03*
X426729Y381009D02*
D03*
X473710Y447040D02*
D03*
X405130Y431800D02*
D03*
X171450Y177800D02*
D03*
Y304800D02*
D03*
X251460Y397510D02*
D03*
X264160D02*
D03*
X290830Y412750D02*
D03*
X276860D02*
D03*
X452120Y472440D02*
D03*
X473710D02*
D03*
X492760Y472130D02*
D03*
X413410Y472440D02*
D03*
X312530Y53340D02*
D03*
M02*
