G04 Layer_Color=8388736*
%FSLAX44Y44*%
%MOMM*%
G71*
G01*
G75*
%ADD25C,2.0000*%
%ADD40R,1.2500X0.8000*%
%ADD41R,1.5500X1.3000*%
%ADD42R,1.1500X1.1500*%
%ADD43R,1.7500X2.6500*%
%ADD44R,0.8500X0.6500*%
%ADD45R,1.1400X2.8500*%
%ADD46R,1.1500X1.1500*%
%ADD47R,1.3000X1.5500*%
%ADD48R,1.6750X1.2500*%
%ADD49R,1.6500X1.2500*%
%ADD50R,2.2500X4.4500*%
%ADD51R,1.4500X3.4500*%
%ADD52R,1.2500X1.3000*%
%ADD53R,1.3000X2.4500*%
%ADD54R,0.5500X0.6500*%
%ADD55C,2.2500*%
%ADD56C,0.2500*%
%ADD57C,1.7740*%
%ADD58C,0.9500*%
D25*
X27940Y496570D02*
D03*
X53340D02*
D03*
X104140D02*
D03*
X78740D02*
D03*
X631500Y331470D02*
D03*
Y356870D02*
D03*
Y458470D02*
D03*
Y483870D02*
D03*
Y433070D02*
D03*
Y407670D02*
D03*
Y382270D02*
D03*
X631190Y121920D02*
D03*
Y147320D02*
D03*
Y248920D02*
D03*
Y274320D02*
D03*
Y223520D02*
D03*
Y198120D02*
D03*
Y172720D02*
D03*
X168910Y46521D02*
D03*
X194310D02*
D03*
D40*
X148920Y118110D02*
D03*
X121920Y137110D02*
D03*
Y118110D02*
D03*
Y127610D02*
D03*
X148920Y137110D02*
D03*
D41*
X71120Y117856D02*
D03*
Y133604D02*
D03*
X172720Y134874D02*
D03*
Y119126D02*
D03*
X364490Y51054D02*
D03*
Y35306D02*
D03*
Y86614D02*
D03*
Y70866D02*
D03*
D42*
X75040Y580390D02*
D03*
X57040D02*
D03*
X45830Y519430D02*
D03*
X27830D02*
D03*
X85200D02*
D03*
X67200D02*
D03*
X416450Y101092D02*
D03*
X434450D02*
D03*
X488840Y130920D02*
D03*
X506840D02*
D03*
D43*
X65240Y556100D02*
D03*
D44*
X51740Y546100D02*
D03*
Y556100D02*
D03*
Y566100D02*
D03*
X78740D02*
D03*
Y556100D02*
D03*
Y546100D02*
D03*
D45*
X340360Y244570D02*
D03*
X327660D02*
D03*
X314960D02*
D03*
X302260D02*
D03*
X289560D02*
D03*
X276860D02*
D03*
X264160D02*
D03*
X251460D02*
D03*
X238760D02*
D03*
X226060D02*
D03*
X213360D02*
D03*
X340360Y369570D02*
D03*
X327660D02*
D03*
X314960D02*
D03*
X302260D02*
D03*
X289560D02*
D03*
X276860D02*
D03*
X264160D02*
D03*
X251460D02*
D03*
X238760D02*
D03*
X226060D02*
D03*
X213360D02*
D03*
X404160Y244570D02*
D03*
X416560D02*
D03*
X429260D02*
D03*
D46*
X260350Y87740D02*
D03*
Y69740D02*
D03*
X284480D02*
D03*
Y87740D02*
D03*
X417830Y34180D02*
D03*
Y52180D02*
D03*
D47*
X578866Y147320D02*
D03*
X594614D02*
D03*
X232664Y414020D02*
D03*
X216916D02*
D03*
D48*
X283210Y41158D02*
D03*
X488840Y92710D02*
D03*
X335280Y78740D02*
D03*
X549910Y121920D02*
D03*
D49*
X260460Y50158D02*
D03*
Y32158D02*
D03*
X466090Y101710D02*
D03*
Y83710D02*
D03*
X312530Y87740D02*
D03*
Y69740D02*
D03*
X527160Y130920D02*
D03*
Y112920D02*
D03*
D50*
X377580Y560260D02*
D03*
X548580D02*
D03*
D51*
X473080Y505460D02*
D03*
X493080D02*
D03*
X513080D02*
D03*
X453080D02*
D03*
X433080D02*
D03*
X413080D02*
D03*
D52*
X416306Y193040D02*
D03*
D53*
X401556Y178040D02*
D03*
X431056D02*
D03*
D54*
X419674Y215900D02*
D03*
X428674D02*
D03*
D55*
X232410Y196850D02*
D03*
X445770Y60960D02*
D03*
X260460Y113284D02*
D03*
X469900Y189230D02*
D03*
X40600Y287020D02*
D03*
Y160020D02*
D03*
D56*
X635000Y585000D02*
D03*
X625000Y35000D02*
D03*
X35000D02*
D03*
X157480Y509800D02*
D03*
Y516800D02*
D03*
Y523800D02*
D03*
Y530800D02*
D03*
Y537800D02*
D03*
Y544800D02*
D03*
Y551800D02*
D03*
Y558800D02*
D03*
X132080D02*
D03*
Y551800D02*
D03*
Y544800D02*
D03*
Y537800D02*
D03*
Y530800D02*
D03*
Y523800D02*
D03*
Y516800D02*
D03*
Y509800D02*
D03*
D57*
X304800Y458520D02*
D03*
Y160020D02*
D03*
D58*
X367030Y214630D02*
D03*
X340360D02*
D03*
X382270Y71120D02*
D03*
X224790Y214630D02*
D03*
X382270Y120650D02*
D03*
X313690Y214630D02*
D03*
X289560D02*
D03*
X412750Y381009D02*
D03*
X452430Y447040D02*
D03*
X302260Y214630D02*
D03*
X426729Y381009D02*
D03*
X473710Y447040D02*
D03*
X405130Y431800D02*
D03*
X171450Y177800D02*
D03*
Y304800D02*
D03*
X251460Y397510D02*
D03*
X264160D02*
D03*
X452120Y472440D02*
D03*
X473710D02*
D03*
X492760Y472130D02*
D03*
X413410Y472440D02*
D03*
X312530Y53340D02*
D03*
M02*
