M48
;Layer_Color=9474304
;FILE_FORMAT=2:5
INCH,LZ
;TYPE=PLATED
T1F00S00C0.01181
T2F00S00C0.03937
T3F00S00C0.04331
T4F00S00C0.10236
;TYPE=NON_PLATED
T5F00S00C0.01575
T6F00S00C0.13780
%
T01
X0030159Y0010894
X0045907
X0061655
X0124647
X0123043Y0021
X0171891Y0010894
X0187639
X0203387
X0219135
X0234883
X0242757Y0026642
X0258505
X0250631Y004239
X0234883
X0219135
X0227009Y0026642
X0211261
X0195513
X0179765Y0089634
X0203387Y0105382
X0219135
X0234883
X0242757Y012113
X0227009
X0195513
X0187639Y0136878
X0203387
X0195513Y0152626
X0179765
X0168004Y0150004
X0171891Y0136878
X0178122Y0176
X01865
X01595Y017
X01625Y0150004
X0148269Y0152626
X0140395Y0136878
X0124647
X0108899
X0104Y01565
X0099
X0109Y01625
X01145
X0093151Y0168374
X0061655
X0045907
X0030159
X0014411
X0022285Y0152626
X0038033
X0053781
X0045907Y0136878
X0061655
X0077403
X00675Y012
X0053781Y012113
X0038033
X0022285
X0014411Y0136878
X0030159
Y0105382
X0045907
X0061655
X0077403
Y0073886
X00675Y007
X0061655Y0073886
X0045907
X0030159
X0014411
X0022285Y0089634
X0038033
X0053781
Y0058138
X0038033
X0022285
X0014411Y004239
X0022285Y0026642
X0053781
X0045907Y004239
X0061655
X0077403
X0093151
X0101025Y0058138
X0108899Y0073886
X0114Y00845
X0119
X01235
X0134
X01445
X0148269Y0089634
X01505Y00475
X0140395Y004239
X0133Y00585
X0132521Y0026642
X0116773
X0085277
X00885Y00845
X0014411Y0105382
X01505Y0028
X0164017Y0026642
X016276Y0186
X0156143Y019987
X0140395
X0124647
X0108899
X0093151
X0077403
X0085277Y0215618
X0101025
X0116773
X0132521
X0124647Y0231366
X0140395
X0156143
X0164017Y0215618
X0108899Y0231366
X0093151
X0077403
X0069529Y0215618
Y0184122
X0101025
X0178Y0186
X01865
X0194Y0185878
X0195513Y0215618
X0179765
X0171891Y0231366
X0187639
X0203387
X0219135
X0234883
X0242757Y0215618
X0258505
X0250631Y019987
X0234883
X0219135
X0227009Y0215618
X0242757Y0184122
T02
X00665Y0018315
X00765
X02485Y0048
Y0058
Y0068
Y0078
Y0088
Y0098
Y0108
X0248622Y01305
Y01405
Y01505
Y01605
Y01705
X0041Y01955
X0031
X0021
X0011
X0248622Y01905
Y01805
T03
X0015984Y0063
Y0113
T04
X001378Y001378
X0246063
X025Y0230315
T05
X0052Y0200709
Y0203465
Y0206221
Y0208976
Y0211732
Y0214488
Y0217244
Y022
X0062
Y0217244
Y0214488
Y0211732
Y0208976
Y0206221
Y0203465
Y0200709
T06
X012Y0063
Y018052
M30
